<svg width="1441" height="1080" viewBox="0 0 1441 1080" fill="none" xmlns="http://www.w3.org/2000/svg">
<path d="M0.779297 0H1440.78V1080H0.779297V0Z" fill="white"/>
<rect opacity="0.2" x="0.779297" y="-207" width="1440" height="1440"/>
<rect x="185.779" y="829" width="99" height="72" fill="url(#paint0_linear)"/>
<path d="M259.428 864.161C259.862 864.227 260.141 864.523 260.265 865.049C260.203 865.51 259.924 865.773 259.428 865.839H215.314L223.504 874.525C223.752 874.92 223.752 875.315 223.504 875.709C223.38 875.775 223.194 875.841 222.946 875.907C222.76 875.907 222.573 875.841 222.387 875.709L212.895 865.641C212.832 865.576 212.77 865.477 212.708 865.345C212.646 865.148 212.646 864.918 212.708 864.654C212.708 864.589 212.77 864.49 212.895 864.358L222.387 854.29C222.76 854.027 223.132 854.027 223.504 854.29C223.752 854.685 223.752 855.08 223.504 855.475L215.314 864.161H259.428Z" fill="white"/>
<path d="M212.645 598.85C212.645 601.775 212.139 604.346 211.127 606.561C210.115 608.762 208.666 610.457 206.779 611.646C204.906 612.822 202.746 613.41 200.299 613.41C197.879 613.41 195.719 612.822 193.818 611.646C191.932 610.457 190.469 608.769 189.43 606.581C188.404 604.394 187.885 601.871 187.871 599.014V597.332C187.871 594.42 188.384 591.85 189.409 589.621C190.448 587.393 191.904 585.69 193.777 584.515C195.664 583.325 197.824 582.73 200.258 582.73C202.691 582.73 204.845 583.318 206.718 584.494C208.604 585.656 210.061 587.338 211.086 589.539C212.111 591.727 212.631 594.276 212.645 597.188V598.85ZM207.456 597.291C207.456 593.982 206.827 591.446 205.569 589.683C204.325 587.919 202.555 587.037 200.258 587.037C198.016 587.037 196.259 587.919 194.987 589.683C193.729 591.433 193.087 593.914 193.06 597.127V598.85C193.06 602.131 193.695 604.667 194.967 606.458C196.252 608.249 198.029 609.145 200.299 609.145C202.596 609.145 204.359 608.27 205.59 606.52C206.834 604.77 207.456 602.213 207.456 598.85V597.291ZM216.397 601.7C216.397 599.526 216.828 597.571 217.689 595.835C218.551 594.085 219.761 592.745 221.319 591.815C222.878 590.872 224.669 590.4 226.692 590.4C229.687 590.4 232.113 591.364 233.973 593.292C235.846 595.22 236.857 597.776 237.008 600.962L237.028 602.131C237.028 604.318 236.604 606.273 235.757 607.996C234.923 609.719 233.72 611.052 232.147 611.995C230.589 612.938 228.784 613.41 226.733 613.41C223.603 613.41 221.094 612.371 219.207 610.293C217.334 608.201 216.397 605.419 216.397 601.946V601.7ZM221.381 602.131C221.381 604.414 221.853 606.205 222.796 607.504C223.739 608.789 225.052 609.432 226.733 609.432C228.415 609.432 229.721 608.775 230.65 607.463C231.594 606.15 232.065 604.229 232.065 601.7C232.065 599.458 231.58 597.681 230.609 596.368C229.652 595.056 228.347 594.399 226.692 594.399C225.065 594.399 223.773 595.049 222.816 596.348C221.859 597.633 221.381 599.561 221.381 602.131ZM260.674 602.131C260.674 605.562 259.895 608.304 258.336 610.354C256.777 612.392 254.686 613.41 252.061 613.41C249.627 613.41 247.679 612.61 246.216 611.011V621.531H241.232V590.811H245.826L246.031 593.066C247.494 591.289 249.483 590.4 251.999 590.4C254.706 590.4 256.825 591.412 258.356 593.436C259.901 595.445 260.674 598.241 260.674 601.823V602.131ZM255.711 601.7C255.711 599.485 255.267 597.729 254.378 596.43C253.503 595.131 252.245 594.481 250.604 594.481C248.567 594.481 247.104 595.322 246.216 597.004V606.848C247.118 608.57 248.595 609.432 250.646 609.432C252.231 609.432 253.469 608.796 254.357 607.524C255.26 606.239 255.711 604.298 255.711 601.7ZM277.347 606.971C277.347 606.082 276.978 605.405 276.239 604.94C275.515 604.476 274.305 604.065 272.609 603.71C270.914 603.354 269.499 602.903 268.364 602.356C265.876 601.153 264.632 599.41 264.632 597.127C264.632 595.213 265.438 593.613 267.052 592.328C268.665 591.043 270.716 590.4 273.204 590.4C275.856 590.4 277.996 591.057 279.623 592.369C281.264 593.682 282.084 595.384 282.084 597.476H277.101C277.101 596.519 276.745 595.726 276.034 595.097C275.323 594.454 274.38 594.133 273.204 594.133C272.11 594.133 271.215 594.386 270.518 594.892C269.834 595.397 269.492 596.074 269.492 596.922C269.492 597.688 269.813 598.282 270.456 598.706C271.099 599.13 272.397 599.561 274.353 599.998C276.308 600.422 277.839 600.935 278.946 601.536C280.067 602.124 280.895 602.835 281.428 603.669C281.975 604.503 282.248 605.515 282.248 606.704C282.248 608.7 281.421 610.32 279.767 611.564C278.112 612.795 275.945 613.41 273.266 613.41C271.447 613.41 269.827 613.082 268.405 612.426C266.983 611.77 265.876 610.867 265.083 609.719C264.29 608.57 263.894 607.333 263.894 606.007H268.733C268.802 607.183 269.246 608.092 270.066 608.734C270.887 609.363 271.974 609.678 273.327 609.678C274.64 609.678 275.638 609.432 276.321 608.939C277.005 608.434 277.347 607.777 277.347 606.971ZM287.313 619.727L284.627 618.127C285.42 616.883 285.96 615.796 286.247 614.866C286.548 613.95 286.705 613.014 286.719 612.057V608.181H291.21L291.189 611.77C291.176 613.219 290.807 614.668 290.082 616.117C289.371 617.58 288.448 618.783 287.313 619.727ZM314.056 605.863L318.567 590.811H323.879L315.061 616.363C313.707 620.096 311.41 621.962 308.17 621.962C307.445 621.962 306.646 621.839 305.771 621.593V617.737L306.714 617.799C307.972 617.799 308.915 617.566 309.544 617.102C310.187 616.65 310.692 615.885 311.062 614.805L311.779 612.897L303.986 590.811H309.359L314.056 605.863ZM325.499 601.7C325.499 599.526 325.93 597.571 326.791 595.835C327.652 594.085 328.862 592.745 330.421 591.815C331.979 590.872 333.771 590.4 335.794 590.4C338.788 590.4 341.215 591.364 343.074 593.292C344.947 595.22 345.959 597.776 346.109 600.962L346.13 602.131C346.13 604.318 345.706 606.273 344.858 607.996C344.024 609.719 342.821 611.052 341.249 611.995C339.69 612.938 337.886 613.41 335.835 613.41C332.704 613.41 330.195 612.371 328.309 610.293C326.436 608.201 325.499 605.419 325.499 601.946V601.7ZM330.482 602.131C330.482 604.414 330.954 606.205 331.897 607.504C332.841 608.789 334.153 609.432 335.835 609.432C337.517 609.432 338.822 608.775 339.752 607.463C340.695 606.15 341.167 604.229 341.167 601.7C341.167 599.458 340.682 597.681 339.711 596.368C338.754 595.056 337.448 594.399 335.794 594.399C334.167 594.399 332.875 595.049 331.918 596.348C330.961 597.633 330.482 599.561 330.482 602.131ZM363.787 610.826C362.324 612.549 360.246 613.41 357.553 613.41C355.146 613.41 353.321 612.706 352.077 611.298C350.847 609.89 350.231 607.853 350.231 605.187V590.811H355.215V605.125C355.215 607.941 356.384 609.35 358.722 609.35C361.142 609.35 362.775 608.481 363.623 606.745V590.811H368.606V613H363.91L363.787 610.826ZM396.579 606.971C396.579 606.082 396.21 605.405 395.472 604.94C394.747 604.476 393.537 604.065 391.842 603.71C390.146 603.354 388.731 602.903 387.597 602.356C385.108 601.153 383.864 599.41 383.864 597.127C383.864 595.213 384.671 593.613 386.284 592.328C387.897 591.043 389.948 590.4 392.437 590.4C395.089 590.4 397.229 591.057 398.855 592.369C400.496 593.682 401.316 595.384 401.316 597.476H396.333C396.333 596.519 395.978 595.726 395.267 595.097C394.556 594.454 393.612 594.133 392.437 594.133C391.343 594.133 390.447 594.386 389.75 594.892C389.066 595.397 388.725 596.074 388.725 596.922C388.725 597.688 389.046 598.282 389.688 598.706C390.331 599.13 391.63 599.561 393.585 599.998C395.54 600.422 397.071 600.935 398.179 601.536C399.3 602.124 400.127 602.835 400.66 603.669C401.207 604.503 401.48 605.515 401.48 606.704C401.48 608.7 400.653 610.32 398.999 611.564C397.345 612.795 395.178 613.41 392.498 613.41C390.68 613.41 389.06 613.082 387.638 612.426C386.216 611.77 385.108 610.867 384.315 609.719C383.522 608.57 383.126 607.333 383.126 606.007H387.966C388.034 607.183 388.479 608.092 389.299 608.734C390.119 609.363 391.206 609.678 392.56 609.678C393.872 609.678 394.87 609.432 395.554 608.939C396.237 608.434 396.579 607.777 396.579 606.971ZM412.083 585.417V590.811H416V594.502H412.083V606.889C412.083 607.736 412.247 608.352 412.575 608.734C412.917 609.104 413.519 609.288 414.38 609.288C414.954 609.288 415.535 609.22 416.123 609.083V612.938C414.988 613.253 413.895 613.41 412.842 613.41C409.014 613.41 407.1 611.298 407.1 607.073V594.502H403.449V590.811H407.1V585.417H412.083ZM425.126 613H420.143V590.811H425.126V613ZM419.835 585.048C419.835 584.282 420.074 583.646 420.553 583.141C421.045 582.635 421.742 582.382 422.645 582.382C423.547 582.382 424.244 582.635 424.736 583.141C425.229 583.646 425.475 584.282 425.475 585.048C425.475 585.8 425.229 586.429 424.736 586.935C424.244 587.427 423.547 587.673 422.645 587.673C421.742 587.673 421.045 587.427 420.553 586.935C420.074 586.429 419.835 585.8 419.835 585.048ZM435.872 613H430.889V581.5H435.872V613ZM446.618 613H441.635V581.5H446.618V613ZM467.434 593.23C469.061 591.344 471.118 590.4 473.606 590.4C478.337 590.4 480.736 593.101 480.805 598.501V613H475.821V598.686C475.821 597.154 475.486 596.074 474.816 595.445C474.16 594.803 473.189 594.481 471.904 594.481C469.908 594.481 468.418 595.37 467.434 597.147V613H462.45V581.5H467.434V593.23ZM499.118 613C498.899 612.576 498.708 611.886 498.544 610.929C496.958 612.583 495.017 613.41 492.72 613.41C490.491 613.41 488.673 612.774 487.265 611.503C485.856 610.231 485.152 608.659 485.152 606.786C485.152 604.421 486.027 602.609 487.777 601.352C489.541 600.08 492.057 599.444 495.324 599.444H498.38V597.988C498.38 596.84 498.059 595.924 497.416 595.24C496.773 594.543 495.796 594.194 494.483 594.194C493.349 594.194 492.419 594.481 491.694 595.056C490.97 595.616 490.607 596.334 490.607 597.209H485.624C485.624 595.992 486.027 594.857 486.834 593.805C487.641 592.738 488.734 591.904 490.115 591.303C491.51 590.701 493.062 590.4 494.771 590.4C497.368 590.4 499.439 591.057 500.984 592.369C502.529 593.668 503.322 595.5 503.363 597.865V607.873C503.363 609.869 503.644 611.462 504.204 612.651V613H499.118ZM493.643 609.411C494.627 609.411 495.55 609.172 496.411 608.693C497.286 608.215 497.942 607.572 498.38 606.766V602.582H495.693C493.848 602.582 492.46 602.903 491.53 603.546C490.601 604.188 490.136 605.098 490.136 606.273C490.136 607.23 490.45 607.996 491.079 608.57C491.722 609.131 492.576 609.411 493.643 609.411ZM516.078 606.684L520.774 590.811H525.922L518.231 613H513.904L506.152 590.811H511.32L516.078 606.684ZM538.534 613.41C535.376 613.41 532.812 612.419 530.844 610.437C528.889 608.44 527.911 605.788 527.911 602.479V601.864C527.911 599.649 528.335 597.674 529.183 595.938C530.044 594.188 531.247 592.827 532.792 591.856C534.337 590.886 536.06 590.4 537.96 590.4C540.981 590.4 543.312 591.364 544.953 593.292C546.607 595.22 547.435 597.947 547.435 601.475V603.484H532.936C533.086 605.316 533.694 606.766 534.761 607.832C535.841 608.898 537.194 609.432 538.821 609.432C541.104 609.432 542.964 608.509 544.399 606.663L547.086 609.227C546.197 610.553 545.008 611.585 543.518 612.323C542.041 613.048 540.38 613.41 538.534 613.41ZM537.939 594.399C536.572 594.399 535.465 594.878 534.617 595.835C533.783 596.792 533.25 598.125 533.018 599.834H542.513V599.465C542.403 597.797 541.959 596.539 541.18 595.691C540.4 594.83 539.32 594.399 537.939 594.399ZM555.945 590.811L556.089 593.374C557.729 591.392 559.883 590.4 562.549 590.4C567.17 590.4 569.521 593.046 569.604 598.337V613H564.62V598.624C564.62 597.216 564.312 596.177 563.697 595.507C563.096 594.823 562.104 594.481 560.724 594.481C558.714 594.481 557.217 595.391 556.232 597.209V613H551.249V590.811H555.945ZM575.981 584.063L575.448 592.082H572.188V581.5H575.981V584.063ZM586.399 585.417V590.811H590.316V594.502H586.399V606.889C586.399 607.736 586.563 608.352 586.892 608.734C587.233 609.104 587.835 609.288 588.696 609.288C589.271 609.288 589.852 609.22 590.439 609.083V612.938C589.305 613.253 588.211 613.41 587.158 613.41C583.33 613.41 581.416 611.298 581.416 607.073V594.502H577.766V590.811H581.416V585.417H586.399ZM190.086 665V646.502H186.702V642.811H190.086V640.78C190.086 638.319 190.77 636.419 192.137 635.079C193.504 633.739 195.418 633.069 197.879 633.069C198.754 633.069 199.684 633.192 200.668 633.438L200.545 637.335C199.998 637.226 199.362 637.171 198.638 637.171C196.259 637.171 195.069 638.395 195.069 640.842V642.811H199.581V646.502H195.069V665H190.086ZM202.288 653.7C202.288 651.526 202.719 649.571 203.58 647.835C204.441 646.085 205.651 644.745 207.21 643.815C208.769 642.872 210.56 642.4 212.583 642.4C215.577 642.4 218.004 643.364 219.863 645.292C221.736 647.22 222.748 649.776 222.898 652.962L222.919 654.131C222.919 656.318 222.495 658.273 221.647 659.996C220.813 661.719 219.61 663.052 218.038 663.995C216.479 664.938 214.675 665.41 212.624 665.41C209.493 665.41 206.984 664.371 205.098 662.293C203.225 660.201 202.288 657.419 202.288 653.946V653.7ZM207.271 654.131C207.271 656.414 207.743 658.205 208.687 659.504C209.63 660.789 210.942 661.432 212.624 661.432C214.306 661.432 215.611 660.775 216.541 659.463C217.484 658.15 217.956 656.229 217.956 653.7C217.956 651.458 217.471 649.681 216.5 648.368C215.543 647.056 214.237 646.399 212.583 646.399C210.956 646.399 209.664 647.049 208.707 648.348C207.75 649.633 207.271 651.561 207.271 654.131ZM240.576 662.826C239.113 664.549 237.035 665.41 234.342 665.41C231.936 665.41 230.11 664.706 228.866 663.298C227.636 661.89 227.021 659.853 227.021 657.187V642.811H232.004V657.125C232.004 659.941 233.173 661.35 235.511 661.35C237.931 661.35 239.564 660.481 240.412 658.745V642.811H245.396V665H240.699L240.576 662.826ZM255.096 642.811L255.239 645.374C256.88 643.392 259.033 642.4 261.699 642.4C266.32 642.4 268.672 645.046 268.754 650.337V665H263.771V650.624C263.771 649.216 263.463 648.177 262.848 647.507C262.246 646.823 261.255 646.481 259.874 646.481C257.864 646.481 256.367 647.391 255.383 649.209V665H250.399V642.811H255.096ZM272.917 653.741C272.917 650.323 273.71 647.582 275.296 645.518C276.882 643.439 279.008 642.4 281.674 642.4C284.025 642.4 285.926 643.221 287.375 644.861V633.5H292.358V665H287.847L287.601 662.703C286.11 664.508 284.121 665.41 281.633 665.41C279.035 665.41 276.93 664.364 275.316 662.272C273.717 660.181 272.917 657.337 272.917 653.741ZM277.9 654.172C277.9 656.428 278.331 658.191 279.192 659.463C280.067 660.721 281.305 661.35 282.904 661.35C284.941 661.35 286.432 660.44 287.375 658.622V649.147C286.459 647.37 284.982 646.481 282.945 646.481C281.332 646.481 280.088 647.124 279.213 648.409C278.338 649.681 277.9 651.602 277.9 654.172ZM327.509 658.13L331.036 642.811H335.896L329.847 665H325.745L320.987 649.763L316.312 665H312.21L306.14 642.811H311L314.589 657.966L319.142 642.811H322.895L327.509 658.13ZM344.141 645.23C345.768 643.344 347.825 642.4 350.313 642.4C355.044 642.4 357.443 645.101 357.512 650.501V665H352.528V650.686C352.528 649.154 352.193 648.074 351.523 647.445C350.867 646.803 349.896 646.481 348.611 646.481C346.615 646.481 345.125 647.37 344.141 649.147V665H339.157V633.5H344.141V645.23ZM375.825 665C375.606 664.576 375.415 663.886 375.251 662.929C373.665 664.583 371.724 665.41 369.427 665.41C367.198 665.41 365.38 664.774 363.972 663.503C362.563 662.231 361.859 660.659 361.859 658.786C361.859 656.421 362.734 654.609 364.484 653.352C366.248 652.08 368.764 651.444 372.031 651.444H375.087V649.988C375.087 648.84 374.766 647.924 374.123 647.24C373.48 646.543 372.503 646.194 371.19 646.194C370.056 646.194 369.126 646.481 368.401 647.056C367.677 647.616 367.314 648.334 367.314 649.209H362.331C362.331 647.992 362.734 646.857 363.541 645.805C364.348 644.738 365.441 643.904 366.822 643.303C368.217 642.701 369.769 642.4 371.478 642.4C374.075 642.4 376.146 643.057 377.691 644.369C379.236 645.668 380.029 647.5 380.07 649.865V659.873C380.07 661.869 380.351 663.462 380.911 664.651V665H375.825ZM370.35 661.411C371.334 661.411 372.257 661.172 373.118 660.693C373.993 660.215 374.649 659.572 375.087 658.766V654.582H372.4C370.555 654.582 369.167 654.903 368.237 655.546C367.308 656.188 366.843 657.098 366.843 658.273C366.843 659.23 367.157 659.996 367.786 660.57C368.429 661.131 369.283 661.411 370.35 661.411ZM391.534 637.417V642.811H395.451V646.502H391.534V658.889C391.534 659.736 391.698 660.352 392.026 660.734C392.368 661.104 392.97 661.288 393.831 661.288C394.405 661.288 394.986 661.22 395.574 661.083V664.938C394.439 665.253 393.346 665.41 392.293 665.41C388.465 665.41 386.551 663.298 386.551 659.073V646.502H382.9V642.811H386.551V637.417H391.534ZM417.497 657.863L422.009 642.811H427.32L418.502 668.363C417.148 672.096 414.852 673.962 411.611 673.962C410.887 673.962 410.087 673.839 409.212 673.593V669.737L410.155 669.799C411.413 669.799 412.356 669.566 412.985 669.102C413.628 668.65 414.134 667.885 414.503 666.805L415.221 664.897L407.428 642.811H412.801L417.497 657.863ZM428.94 653.7C428.94 651.526 429.371 649.571 430.232 647.835C431.094 646.085 432.304 644.745 433.862 643.815C435.421 642.872 437.212 642.4 439.235 642.4C442.229 642.4 444.656 643.364 446.516 645.292C448.389 647.22 449.4 649.776 449.551 652.962L449.571 654.131C449.571 656.318 449.147 658.273 448.3 659.996C447.466 661.719 446.263 663.052 444.69 663.995C443.132 664.938 441.327 665.41 439.276 665.41C436.146 665.41 433.637 664.371 431.75 662.293C429.877 660.201 428.94 657.419 428.94 653.946V653.7ZM433.924 654.131C433.924 656.414 434.396 658.205 435.339 659.504C436.282 660.789 437.595 661.432 439.276 661.432C440.958 661.432 442.264 660.775 443.193 659.463C444.137 658.15 444.608 656.229 444.608 653.7C444.608 651.458 444.123 649.681 443.152 648.368C442.195 647.056 440.89 646.399 439.235 646.399C437.608 646.399 436.316 647.049 435.359 648.348C434.402 649.633 433.924 651.561 433.924 654.131ZM467.229 662.826C465.766 664.549 463.688 665.41 460.994 665.41C458.588 665.41 456.763 664.706 455.519 663.298C454.288 661.89 453.673 659.853 453.673 657.187V642.811H458.656V657.125C458.656 659.941 459.825 661.35 462.163 661.35C464.583 661.35 466.217 660.481 467.064 658.745V642.811H472.048V665H467.352L467.229 662.826ZM492.884 665H487.9V633.5H492.884V665ZM497.396 653.7C497.396 651.526 497.826 649.571 498.688 647.835C499.549 646.085 500.759 644.745 502.317 643.815C503.876 642.872 505.667 642.4 507.69 642.4C510.685 642.4 513.111 643.364 514.971 645.292C516.844 647.22 517.855 649.776 518.006 652.962L518.026 654.131C518.026 656.318 517.603 658.273 516.755 659.996C515.921 661.719 514.718 663.052 513.146 663.995C511.587 664.938 509.782 665.41 507.731 665.41C504.601 665.41 502.092 664.371 500.205 662.293C498.332 660.201 497.396 657.419 497.396 653.946V653.7ZM502.379 654.131C502.379 656.414 502.851 658.205 503.794 659.504C504.737 660.789 506.05 661.432 507.731 661.432C509.413 661.432 510.719 660.775 511.648 659.463C512.592 658.15 513.063 656.229 513.063 653.7C513.063 651.458 512.578 649.681 511.607 648.368C510.65 647.056 509.345 646.399 507.69 646.399C506.063 646.399 504.771 647.049 503.814 648.348C502.857 649.633 502.379 651.561 502.379 654.131ZM521.308 653.7C521.308 651.526 521.738 649.571 522.6 647.835C523.461 646.085 524.671 644.745 526.229 643.815C527.788 642.872 529.579 642.4 531.603 642.4C534.597 642.4 537.023 643.364 538.883 645.292C540.756 647.22 541.768 649.776 541.918 652.962L541.938 654.131C541.938 656.318 541.515 658.273 540.667 659.996C539.833 661.719 538.63 663.052 537.058 663.995C535.499 664.938 533.694 665.41 531.644 665.41C528.513 665.41 526.004 664.371 524.117 662.293C522.244 660.201 521.308 657.419 521.308 653.946V653.7ZM526.291 654.131C526.291 656.414 526.763 658.205 527.706 659.504C528.649 660.789 529.962 661.432 531.644 661.432C533.325 661.432 534.631 660.775 535.561 659.463C536.504 658.15 536.976 656.229 536.976 653.7C536.976 651.458 536.49 649.681 535.52 648.368C534.562 647.056 533.257 646.399 531.603 646.399C529.976 646.399 528.684 647.049 527.727 648.348C526.77 649.633 526.291 651.561 526.291 654.131ZM553.361 655.484L551.146 657.761V665H546.163V633.5H551.146V651.67L552.705 649.722L558.837 642.811H564.825L556.581 652.06L565.707 665H559.944L553.361 655.484ZM573.397 665H568.414V642.811H573.397V665ZM568.106 637.048C568.106 636.282 568.346 635.646 568.824 635.141C569.316 634.635 570.014 634.382 570.916 634.382C571.818 634.382 572.516 634.635 573.008 635.141C573.5 635.646 573.746 636.282 573.746 637.048C573.746 637.8 573.5 638.429 573.008 638.935C572.516 639.427 571.818 639.673 570.916 639.673C570.014 639.673 569.316 639.427 568.824 638.935C568.346 638.429 568.106 637.8 568.106 637.048ZM583.467 642.811L583.61 645.374C585.251 643.392 587.404 642.4 590.07 642.4C594.691 642.4 597.043 645.046 597.125 650.337V665H592.142V650.624C592.142 649.216 591.834 648.177 591.219 647.507C590.617 646.823 589.626 646.481 588.245 646.481C586.235 646.481 584.738 647.391 583.754 649.209V665H578.771V642.811H583.467ZM601.35 653.741C601.35 650.296 602.156 647.548 603.77 645.497C605.396 643.433 607.55 642.4 610.229 642.4C612.759 642.4 614.748 643.282 616.197 645.046L616.423 642.811H620.914V664.323C620.914 667.235 620.005 669.532 618.187 671.214C616.382 672.896 613.941 673.736 610.865 673.736C609.238 673.736 607.646 673.395 606.087 672.711C604.542 672.041 603.366 671.159 602.56 670.065L604.918 667.071C606.449 668.89 608.336 669.799 610.578 669.799C612.232 669.799 613.538 669.348 614.495 668.445C615.452 667.557 615.931 666.244 615.931 664.508V663.011C614.495 664.61 612.581 665.41 610.188 665.41C607.591 665.41 605.465 664.378 603.811 662.313C602.17 660.249 601.35 657.392 601.35 653.741ZM606.312 654.172C606.312 656.4 606.764 658.157 607.666 659.442C608.582 660.714 609.847 661.35 611.46 661.35C613.47 661.35 614.96 660.488 615.931 658.766V649.004C614.987 647.322 613.511 646.481 611.501 646.481C609.86 646.481 608.582 647.131 607.666 648.43C606.764 649.729 606.312 651.643 606.312 654.172ZM638.264 665V646.502H634.88V642.811H638.264V640.78C638.264 638.319 638.947 636.419 640.314 635.079C641.682 633.739 643.596 633.069 646.057 633.069C646.932 633.069 647.861 633.192 648.846 633.438L648.723 637.335C648.176 637.226 647.54 637.171 646.815 637.171C644.437 637.171 643.247 638.395 643.247 640.842V642.811H647.759V646.502H643.247V665H638.264ZM650.466 653.7C650.466 651.526 650.896 649.571 651.758 647.835C652.619 646.085 653.829 644.745 655.388 643.815C656.946 642.872 658.737 642.4 660.761 642.4C663.755 642.4 666.182 643.364 668.041 645.292C669.914 647.22 670.926 649.776 671.076 652.962L671.097 654.131C671.097 656.318 670.673 658.273 669.825 659.996C668.991 661.719 667.788 663.052 666.216 663.995C664.657 664.938 662.853 665.41 660.802 665.41C657.671 665.41 655.162 664.371 653.275 662.293C651.402 660.201 650.466 657.419 650.466 653.946V653.7ZM655.449 654.131C655.449 656.414 655.921 658.205 656.864 659.504C657.808 660.789 659.12 661.432 660.802 661.432C662.483 661.432 663.789 660.775 664.719 659.463C665.662 658.15 666.134 656.229 666.134 653.7C666.134 651.458 665.648 649.681 664.678 648.368C663.721 647.056 662.415 646.399 660.761 646.399C659.134 646.399 657.842 647.049 656.885 648.348C655.928 649.633 655.449 651.561 655.449 654.131ZM686.929 647.363C686.272 647.254 685.596 647.199 684.898 647.199C682.615 647.199 681.077 648.074 680.284 649.824V665H675.301V642.811H680.059L680.182 645.292C681.385 643.364 683.053 642.4 685.186 642.4C685.896 642.4 686.484 642.496 686.949 642.688L686.929 647.363ZM694.701 656.223C694.701 654.404 694.927 652.955 695.378 651.875C695.829 650.795 696.718 649.612 698.044 648.327C699.384 647.028 700.231 646.105 700.587 645.559C701.134 644.725 701.407 643.822 701.407 642.852C701.407 641.566 701.086 640.589 700.443 639.919C699.814 639.235 698.885 638.894 697.654 638.894C696.479 638.894 695.528 639.229 694.804 639.898C694.093 640.555 693.737 641.45 693.737 642.585H688.754C688.781 640.165 689.602 638.251 691.215 636.843C692.842 635.435 694.988 634.73 697.654 634.73C700.402 634.73 702.542 635.428 704.073 636.822C705.618 638.217 706.391 640.165 706.391 642.667C706.391 644.896 705.352 647.09 703.273 649.25L700.751 651.731C699.849 652.757 699.384 654.254 699.356 656.223H694.701ZM694.353 662.601C694.353 661.794 694.605 661.145 695.111 660.652C695.617 660.146 696.301 659.894 697.162 659.894C698.037 659.894 698.728 660.153 699.233 660.673C699.739 661.179 699.992 661.821 699.992 662.601C699.992 663.353 699.746 663.981 699.254 664.487C698.762 664.993 698.064 665.246 697.162 665.246C696.26 665.246 695.562 664.993 695.07 664.487C694.592 663.981 694.353 663.353 694.353 662.601Z" fill="black"/>
<path d="M196.326 717.996H192.336V729H190.13V717.996H186.175V716.203H196.326V717.996ZM199.912 720.527C200.609 719.719 201.491 719.314 202.558 719.314C204.585 719.314 205.613 720.472 205.643 722.786V729H203.507V722.865C203.507 722.209 203.363 721.746 203.076 721.477C202.795 721.201 202.379 721.063 201.828 721.063C200.973 721.063 200.334 721.444 199.912 722.206V729H197.776V715.5H199.912V720.527ZM211.997 729.176C210.644 729.176 209.545 728.751 208.701 727.901C207.863 727.046 207.444 725.909 207.444 724.491V724.228C207.444 723.278 207.626 722.432 207.989 721.688C208.358 720.938 208.874 720.354 209.536 719.938C210.198 719.522 210.937 719.314 211.751 719.314C213.046 719.314 214.045 719.728 214.748 720.554C215.457 721.38 215.812 722.549 215.812 724.061V724.922H209.598C209.662 725.707 209.923 726.328 210.38 726.785C210.843 727.242 211.423 727.471 212.12 727.471C213.099 727.471 213.896 727.075 214.511 726.284L215.662 727.383C215.281 727.951 214.771 728.394 214.133 728.71C213.5 729.021 212.788 729.176 211.997 729.176ZM211.742 721.028C211.156 721.028 210.682 721.233 210.318 721.644C209.961 722.054 209.732 722.625 209.633 723.357H213.702V723.199C213.655 722.484 213.465 721.945 213.131 721.582C212.797 721.213 212.334 721.028 211.742 721.028ZM230.287 724.342C230.287 725.812 229.953 726.987 229.285 727.866C228.617 728.739 227.721 729.176 226.596 729.176C225.553 729.176 224.718 728.833 224.091 728.147V732.656H221.955V719.49H223.924L224.012 720.457C224.639 719.695 225.491 719.314 226.569 719.314C227.729 719.314 228.638 719.748 229.294 720.615C229.956 721.477 230.287 722.675 230.287 724.21V724.342ZM228.16 724.157C228.16 723.208 227.97 722.455 227.589 721.898C227.214 721.342 226.675 721.063 225.972 721.063C225.099 721.063 224.472 721.424 224.091 722.145V726.363C224.478 727.102 225.11 727.471 225.989 727.471C226.669 727.471 227.199 727.198 227.58 726.653C227.967 726.103 228.16 725.271 228.16 724.157ZM237.784 729C237.69 728.818 237.608 728.522 237.538 728.112C236.858 728.821 236.026 729.176 235.042 729.176C234.087 729.176 233.308 728.903 232.704 728.358C232.101 727.813 231.799 727.14 231.799 726.337C231.799 725.323 232.174 724.547 232.924 724.008C233.68 723.463 234.758 723.19 236.158 723.19H237.468V722.566C237.468 722.074 237.33 721.682 237.055 721.389C236.779 721.09 236.36 720.94 235.798 720.94C235.312 720.94 234.913 721.063 234.603 721.31C234.292 721.55 234.137 721.857 234.137 722.232H232.001C232.001 721.711 232.174 721.225 232.52 720.773C232.865 720.316 233.334 719.959 233.926 719.701C234.523 719.443 235.188 719.314 235.921 719.314C237.034 719.314 237.922 719.596 238.584 720.158C239.246 720.715 239.586 721.5 239.604 722.514V726.803C239.604 727.658 239.724 728.341 239.964 728.851V729H237.784ZM235.438 727.462C235.859 727.462 236.255 727.359 236.624 727.154C236.999 726.949 237.28 726.674 237.468 726.328V724.535H236.316C235.525 724.535 234.931 724.673 234.532 724.948C234.134 725.224 233.935 725.613 233.935 726.117C233.935 726.527 234.069 726.855 234.339 727.102C234.614 727.342 234.98 727.462 235.438 727.462ZM241.467 724.175C241.467 722.698 241.812 721.521 242.504 720.642C243.201 719.757 244.124 719.314 245.272 719.314C246.356 719.314 247.209 719.692 247.83 720.448L247.927 719.49H249.852V728.71C249.852 729.958 249.462 730.942 248.683 731.663C247.909 732.384 246.863 732.744 245.545 732.744C244.848 732.744 244.165 732.598 243.497 732.305C242.835 732.018 242.331 731.64 241.985 731.171L242.996 729.888C243.652 730.667 244.461 731.057 245.422 731.057C246.131 731.057 246.69 730.863 247.101 730.477C247.511 730.096 247.716 729.533 247.716 728.789V728.147C247.101 728.833 246.28 729.176 245.255 729.176C244.142 729.176 243.23 728.733 242.521 727.849C241.818 726.964 241.467 725.739 241.467 724.175ZM243.594 724.359C243.594 725.314 243.787 726.067 244.174 726.618C244.566 727.163 245.108 727.436 245.8 727.436C246.661 727.436 247.3 727.066 247.716 726.328V722.145C247.312 721.424 246.679 721.063 245.817 721.063C245.114 721.063 244.566 721.342 244.174 721.898C243.787 722.455 243.594 723.275 243.594 724.359ZM256.241 729.176C254.888 729.176 253.789 728.751 252.945 727.901C252.107 727.046 251.688 725.909 251.688 724.491V724.228C251.688 723.278 251.87 722.432 252.233 721.688C252.603 720.938 253.118 720.354 253.78 719.938C254.442 719.522 255.181 719.314 255.995 719.314C257.29 719.314 258.289 719.728 258.992 720.554C259.701 721.38 260.056 722.549 260.056 724.061V724.922H253.842C253.906 725.707 254.167 726.328 254.624 726.785C255.087 727.242 255.667 727.471 256.364 727.471C257.343 727.471 258.14 727.075 258.755 726.284L259.906 727.383C259.525 727.951 259.016 728.394 258.377 728.71C257.744 729.021 257.032 729.176 256.241 729.176ZM255.986 721.028C255.4 721.028 254.926 721.233 254.562 721.644C254.205 722.054 253.977 722.625 253.877 723.357H257.946V723.199C257.899 722.484 257.709 721.945 257.375 721.582C257.041 721.213 256.578 721.028 255.986 721.028ZM269.53 725.941L271.464 719.49H273.74L269.961 730.441C269.381 732.041 268.396 732.841 267.008 732.841C266.697 732.841 266.354 732.788 265.979 732.683V731.03L266.384 731.057C266.923 731.057 267.327 730.957 267.597 730.758C267.872 730.564 268.089 730.236 268.247 729.773L268.555 728.956L265.215 719.49H267.518L269.53 725.941ZM274.435 724.157C274.435 723.226 274.619 722.388 274.988 721.644C275.357 720.894 275.876 720.319 276.544 719.921C277.212 719.517 277.979 719.314 278.847 719.314C280.13 719.314 281.17 719.728 281.967 720.554C282.77 721.38 283.203 722.476 283.268 723.841L283.276 724.342C283.276 725.279 283.095 726.117 282.731 726.855C282.374 727.594 281.858 728.165 281.185 728.569C280.517 728.974 279.743 729.176 278.864 729.176C277.522 729.176 276.447 728.73 275.639 727.84C274.836 726.943 274.435 725.751 274.435 724.263V724.157ZM276.57 724.342C276.57 725.32 276.772 726.088 277.177 726.645C277.581 727.195 278.144 727.471 278.864 727.471C279.585 727.471 280.145 727.189 280.543 726.627C280.947 726.064 281.149 725.241 281.149 724.157C281.149 723.196 280.941 722.435 280.525 721.872C280.115 721.31 279.556 721.028 278.847 721.028C278.149 721.028 277.596 721.307 277.186 721.863C276.775 722.414 276.57 723.24 276.57 724.342ZM290.844 728.068C290.217 728.807 289.326 729.176 288.172 729.176C287.141 729.176 286.358 728.874 285.825 728.271C285.298 727.667 285.034 726.794 285.034 725.651V719.49H287.17V725.625C287.17 726.832 287.671 727.436 288.673 727.436C289.71 727.436 290.41 727.063 290.773 726.319V719.49H292.909V729H290.896L290.844 728.068ZM305.249 729C305.155 728.818 305.073 728.522 305.003 728.112C304.323 728.821 303.491 729.176 302.507 729.176C301.552 729.176 300.772 728.903 300.169 728.358C299.565 727.813 299.264 727.14 299.264 726.337C299.264 725.323 299.639 724.547 300.389 724.008C301.145 723.463 302.223 723.19 303.623 723.19H304.933V722.566C304.933 722.074 304.795 721.682 304.52 721.389C304.244 721.09 303.825 720.94 303.263 720.94C302.776 720.94 302.378 721.063 302.067 721.31C301.757 721.55 301.602 721.857 301.602 722.232H299.466C299.466 721.711 299.639 721.225 299.984 720.773C300.33 720.316 300.799 719.959 301.391 719.701C301.988 719.443 302.653 719.314 303.386 719.314C304.499 719.314 305.387 719.596 306.049 720.158C306.711 720.715 307.051 721.5 307.068 722.514V726.803C307.068 727.658 307.188 728.341 307.429 728.851V729H305.249ZM302.902 727.462C303.324 727.462 303.72 727.359 304.089 727.154C304.464 726.949 304.745 726.674 304.933 726.328V724.535H303.781C302.99 724.535 302.396 724.673 301.997 724.948C301.599 725.224 301.399 725.613 301.399 726.117C301.399 726.527 301.534 726.855 301.804 727.102C302.079 727.342 302.445 727.462 302.902 727.462ZM314.284 721.441C314.003 721.395 313.713 721.371 313.414 721.371C312.436 721.371 311.776 721.746 311.437 722.496V729H309.301V719.49H311.34L311.393 720.554C311.908 719.728 312.623 719.314 313.537 719.314C313.842 719.314 314.094 719.355 314.293 719.438L314.284 721.441ZM319.646 729.176C318.292 729.176 317.193 728.751 316.35 727.901C315.512 727.046 315.093 725.909 315.093 724.491V724.228C315.093 723.278 315.274 722.432 315.638 721.688C316.007 720.938 316.522 720.354 317.185 719.938C317.847 719.522 318.585 719.314 319.399 719.314C320.694 719.314 321.693 719.728 322.396 720.554C323.105 721.38 323.46 722.549 323.46 724.061V724.922H317.246C317.311 725.707 317.571 726.328 318.028 726.785C318.491 727.242 319.071 727.471 319.769 727.471C320.747 727.471 321.544 727.075 322.159 726.284L323.311 727.383C322.93 727.951 322.42 728.394 321.781 728.71C321.148 729.021 320.437 729.176 319.646 729.176ZM319.391 721.028C318.805 721.028 318.33 721.233 317.967 721.644C317.609 722.054 317.381 722.625 317.281 723.357H321.351V723.199C321.304 722.484 321.113 721.945 320.779 721.582C320.445 721.213 319.982 721.028 319.391 721.028ZM331.88 729H329.744V715.5H331.88V729ZM333.813 724.157C333.813 723.226 333.998 722.388 334.367 721.644C334.736 720.894 335.255 720.319 335.923 719.921C336.591 719.517 337.358 719.314 338.226 719.314C339.509 719.314 340.549 719.728 341.346 720.554C342.148 721.38 342.582 722.476 342.646 723.841L342.655 724.342C342.655 725.279 342.474 726.117 342.11 726.855C341.753 727.594 341.237 728.165 340.563 728.569C339.896 728.974 339.122 729.176 338.243 729.176C336.901 729.176 335.826 728.73 335.018 727.84C334.215 726.943 333.813 725.751 333.813 724.263V724.157ZM335.949 724.342C335.949 725.32 336.151 726.088 336.556 726.645C336.96 727.195 337.522 727.471 338.243 727.471C338.964 727.471 339.523 727.189 339.922 726.627C340.326 726.064 340.528 725.241 340.528 724.157C340.528 723.196 340.32 722.435 339.904 721.872C339.494 721.31 338.935 721.028 338.226 721.028C337.528 721.028 336.975 721.307 336.564 721.863C336.154 722.414 335.949 723.24 335.949 724.342ZM344.062 724.157C344.062 723.226 344.246 722.388 344.615 721.644C344.984 720.894 345.503 720.319 346.171 719.921C346.839 719.517 347.606 719.314 348.474 719.314C349.757 719.314 350.797 719.728 351.594 720.554C352.396 721.38 352.83 722.476 352.895 723.841L352.903 724.342C352.903 725.279 352.722 726.117 352.358 726.855C352.001 727.594 351.485 728.165 350.812 728.569C350.144 728.974 349.37 729.176 348.491 729.176C347.149 729.176 346.074 728.73 345.266 727.84C344.463 726.943 344.062 725.751 344.062 724.263V724.157ZM346.197 724.342C346.197 725.32 346.399 726.088 346.804 726.645C347.208 727.195 347.771 727.471 348.491 727.471C349.212 727.471 349.771 727.189 350.17 726.627C350.574 726.064 350.776 725.241 350.776 724.157C350.776 723.196 350.568 722.435 350.152 721.872C349.742 721.31 349.183 721.028 348.474 721.028C347.776 721.028 347.223 721.307 346.812 721.863C346.402 722.414 346.197 723.24 346.197 724.342ZM357.799 724.922L356.85 725.897V729H354.714V715.5H356.85V723.287L357.518 722.452L360.146 719.49H362.712L359.179 723.454L363.09 729H360.62L357.799 724.922ZM366.386 729H364.25V719.49H366.386V729ZM364.118 717.021C364.118 716.692 364.221 716.42 364.426 716.203C364.637 715.986 364.936 715.878 365.322 715.878C365.709 715.878 366.008 715.986 366.219 716.203C366.43 716.42 366.535 716.692 366.535 717.021C366.535 717.343 366.43 717.612 366.219 717.829C366.008 718.04 365.709 718.146 365.322 718.146C364.936 718.146 364.637 718.04 364.426 717.829C364.221 717.612 364.118 717.343 364.118 717.021ZM370.701 719.49L370.763 720.589C371.466 719.739 372.389 719.314 373.531 719.314C375.512 719.314 376.52 720.448 376.555 722.716V729H374.419V722.839C374.419 722.235 374.287 721.79 374.023 721.503C373.766 721.21 373.341 721.063 372.749 721.063C371.888 721.063 371.246 721.453 370.824 722.232V729H368.688V719.49H370.701ZM378.365 724.175C378.365 722.698 378.711 721.521 379.402 720.642C380.1 719.757 381.022 719.314 382.171 719.314C383.255 719.314 384.107 719.692 384.729 720.448L384.825 719.49H386.75V728.71C386.75 729.958 386.36 730.942 385.581 731.663C384.808 732.384 383.762 732.744 382.443 732.744C381.746 732.744 381.063 732.598 380.396 732.305C379.733 732.018 379.229 731.64 378.884 731.171L379.895 729.888C380.551 730.667 381.359 731.057 382.32 731.057C383.029 731.057 383.589 730.863 383.999 730.477C384.409 730.096 384.614 729.533 384.614 728.789V728.147C383.999 728.833 383.179 729.176 382.153 729.176C381.04 729.176 380.129 728.733 379.42 727.849C378.717 726.964 378.365 725.739 378.365 724.175ZM380.492 724.359C380.492 725.314 380.686 726.067 381.072 726.618C381.465 727.163 382.007 727.436 382.698 727.436C383.56 727.436 384.198 727.066 384.614 726.328V722.145C384.21 721.424 383.577 721.063 382.716 721.063C382.013 721.063 381.465 721.342 381.072 721.898C380.686 722.455 380.492 723.275 380.492 724.359ZM394.186 729V721.072H392.735V719.49H394.186V718.62C394.186 717.565 394.479 716.751 395.064 716.177C395.65 715.603 396.471 715.315 397.525 715.315C397.9 715.315 398.299 715.368 398.721 715.474L398.668 717.144C398.434 717.097 398.161 717.073 397.851 717.073C396.831 717.073 396.321 717.598 396.321 718.646V719.49H398.255V721.072H396.321V729H394.186ZM399.415 724.157C399.415 723.226 399.6 722.388 399.969 721.644C400.338 720.894 400.856 720.319 401.524 719.921C402.192 719.517 402.96 719.314 403.827 719.314C405.11 719.314 406.15 719.728 406.947 720.554C407.75 721.38 408.184 722.476 408.248 723.841L408.257 724.342C408.257 725.279 408.075 726.117 407.712 726.855C407.354 727.594 406.839 728.165 406.165 728.569C405.497 728.974 404.724 729.176 403.845 729.176C402.503 729.176 401.428 728.73 400.619 727.84C399.816 726.943 399.415 725.751 399.415 724.263V724.157ZM401.551 724.342C401.551 725.32 401.753 726.088 402.157 726.645C402.562 727.195 403.124 727.471 403.845 727.471C404.565 727.471 405.125 727.189 405.523 726.627C405.928 726.064 406.13 725.241 406.13 724.157C406.13 723.196 405.922 722.435 405.506 721.872C405.096 721.31 404.536 721.028 403.827 721.028C403.13 721.028 402.576 721.307 402.166 721.863C401.756 722.414 401.551 723.24 401.551 724.342ZM415.042 721.441C414.761 721.395 414.471 721.371 414.172 721.371C413.193 721.371 412.534 721.746 412.194 722.496V729H410.059V719.49H412.098L412.15 720.554C412.666 719.728 413.381 719.314 414.295 719.314C414.6 719.314 414.852 719.355 415.051 719.438L415.042 721.441ZM422.882 719.49L422.943 720.483C423.611 719.704 424.525 719.314 425.686 719.314C426.957 719.314 427.827 719.801 428.296 720.773C428.987 719.801 429.96 719.314 431.214 719.314C432.263 719.314 433.042 719.604 433.552 720.185C434.067 720.765 434.331 721.62 434.343 722.751V729H432.207V722.812C432.207 722.209 432.075 721.767 431.812 721.485C431.548 721.204 431.111 721.063 430.502 721.063C430.016 721.063 429.617 721.195 429.307 721.459C429.002 721.717 428.788 722.057 428.665 722.479L428.674 729H426.538V722.742C426.509 721.623 425.938 721.063 424.824 721.063C423.969 721.063 423.362 721.412 423.005 722.109V729H420.869V719.49H422.882ZM438.808 729H436.672V719.49H438.808V729ZM436.54 717.021C436.54 716.692 436.643 716.42 436.848 716.203C437.059 715.986 437.357 715.878 437.744 715.878C438.131 715.878 438.43 715.986 438.641 716.203C438.852 716.42 438.957 716.692 438.957 717.021C438.957 717.343 438.852 717.612 438.641 717.829C438.43 718.04 438.131 718.146 437.744 718.146C437.357 718.146 437.059 718.04 436.848 717.829C436.643 717.612 436.54 717.343 436.54 717.021ZM440.768 724.175C440.768 722.698 441.113 721.521 441.805 720.642C442.502 719.757 443.425 719.314 444.573 719.314C445.657 719.314 446.51 719.692 447.131 720.448L447.228 719.49H449.152V728.71C449.152 729.958 448.763 730.942 447.983 731.663C447.21 732.384 446.164 732.744 444.846 732.744C444.148 732.744 443.466 732.598 442.798 732.305C442.136 732.018 441.632 731.64 441.286 731.171L442.297 729.888C442.953 730.667 443.762 731.057 444.723 731.057C445.432 731.057 445.991 730.863 446.401 730.477C446.812 730.096 447.017 729.533 447.017 728.789V728.147C446.401 728.833 445.581 729.176 444.556 729.176C443.442 729.176 442.531 728.733 441.822 727.849C441.119 726.964 440.768 725.739 440.768 724.175ZM442.895 724.359C442.895 725.314 443.088 726.067 443.475 726.618C443.867 727.163 444.409 727.436 445.101 727.436C445.962 727.436 446.601 727.066 447.017 726.328V722.145C446.612 721.424 445.979 721.063 445.118 721.063C444.415 721.063 443.867 721.342 443.475 721.898C443.088 722.455 442.895 723.275 442.895 724.359ZM453.459 720.527C454.156 719.719 455.038 719.314 456.104 719.314C458.132 719.314 459.16 720.472 459.189 722.786V729H457.054V722.865C457.054 722.209 456.91 721.746 456.623 721.477C456.342 721.201 455.926 721.063 455.375 721.063C454.52 721.063 453.881 721.444 453.459 722.206V729H451.323V715.5H453.459V720.527ZM464.032 717.179V719.49H465.711V721.072H464.032V726.381C464.032 726.744 464.103 727.008 464.243 727.172C464.39 727.33 464.647 727.409 465.017 727.409C465.263 727.409 465.512 727.38 465.764 727.321V728.974C465.277 729.108 464.809 729.176 464.357 729.176C462.717 729.176 461.896 728.271 461.896 726.46V721.072H460.332V719.49H461.896V717.179H464.032ZM473.938 720.527C474.635 719.719 475.517 719.314 476.583 719.314C478.61 719.314 479.639 720.472 479.668 722.786V729H477.532V722.865C477.532 722.209 477.389 721.746 477.102 721.477C476.82 721.201 476.404 721.063 475.854 721.063C474.998 721.063 474.359 721.444 473.938 722.206V729H471.802V715.5H473.938V720.527ZM487.517 729C487.423 728.818 487.341 728.522 487.271 728.112C486.591 728.821 485.759 729.176 484.774 729.176C483.819 729.176 483.04 728.903 482.437 728.358C481.833 727.813 481.531 727.14 481.531 726.337C481.531 725.323 481.906 724.547 482.656 724.008C483.412 723.463 484.49 723.19 485.891 723.19H487.2V722.566C487.2 722.074 487.062 721.682 486.787 721.389C486.512 721.09 486.093 720.94 485.53 720.94C485.044 720.94 484.646 721.063 484.335 721.31C484.024 721.55 483.869 721.857 483.869 722.232H481.733C481.733 721.711 481.906 721.225 482.252 720.773C482.598 720.316 483.066 719.959 483.658 719.701C484.256 719.443 484.921 719.314 485.653 719.314C486.767 719.314 487.654 719.596 488.316 720.158C488.979 720.715 489.318 721.5 489.336 722.514V726.803C489.336 727.658 489.456 728.341 489.696 728.851V729H487.517ZM485.17 727.462C485.592 727.462 485.987 727.359 486.356 727.154C486.731 726.949 487.013 726.674 487.2 726.328V724.535H486.049C485.258 724.535 484.663 724.673 484.265 724.948C483.866 725.224 483.667 725.613 483.667 726.117C483.667 726.527 483.802 726.855 484.071 727.102C484.347 727.342 484.713 727.462 485.17 727.462ZM494.785 726.293L496.798 719.49H499.004L495.708 729H493.854L490.531 719.49H492.746L494.785 726.293ZM504.409 729.176C503.056 729.176 501.957 728.751 501.113 727.901C500.275 727.046 499.856 725.909 499.856 724.491V724.228C499.856 723.278 500.038 722.432 500.401 721.688C500.771 720.938 501.286 720.354 501.948 719.938C502.61 719.522 503.349 719.314 504.163 719.314C505.458 719.314 506.457 719.728 507.16 720.554C507.869 721.38 508.224 722.549 508.224 724.061V724.922H502.01C502.074 725.707 502.335 726.328 502.792 726.785C503.255 727.242 503.835 727.471 504.532 727.471C505.511 727.471 506.308 727.075 506.923 726.284L508.074 727.383C507.693 727.951 507.184 728.394 506.545 728.71C505.912 729.021 505.2 729.176 504.409 729.176ZM504.154 721.028C503.568 721.028 503.094 721.233 502.73 721.644C502.373 722.054 502.145 722.625 502.045 723.357H506.114V723.199C506.067 722.484 505.877 721.945 505.543 721.582C505.209 721.213 504.746 721.028 504.154 721.028ZM522.717 724.342C522.717 725.818 522.386 726.993 521.724 727.866C521.067 728.739 520.162 729.176 519.008 729.176C517.895 729.176 517.027 728.774 516.406 727.972L516.301 729H514.367V715.5H516.503V720.404C517.118 719.678 517.947 719.314 518.99 719.314C520.15 719.314 521.062 719.745 521.724 720.606C522.386 721.468 522.717 722.672 522.717 724.219V724.342ZM520.581 724.157C520.581 723.126 520.399 722.353 520.036 721.837C519.673 721.321 519.146 721.063 518.454 721.063C517.528 721.063 516.878 721.468 516.503 722.276V726.196C516.884 727.022 517.54 727.436 518.472 727.436C519.14 727.436 519.655 727.187 520.019 726.688C520.382 726.19 520.569 725.438 520.581 724.43V724.157ZM528.702 729.176C527.349 729.176 526.25 728.751 525.406 727.901C524.568 727.046 524.149 725.909 524.149 724.491V724.228C524.149 723.278 524.331 722.432 524.694 721.688C525.063 720.938 525.579 720.354 526.241 719.938C526.903 719.522 527.642 719.314 528.456 719.314C529.751 719.314 530.75 719.728 531.453 720.554C532.162 721.38 532.517 722.549 532.517 724.061V724.922H526.303C526.367 725.707 526.628 726.328 527.085 726.785C527.548 727.242 528.128 727.471 528.825 727.471C529.804 727.471 530.601 727.075 531.216 726.284L532.367 727.383C531.986 727.951 531.477 728.394 530.838 728.71C530.205 729.021 529.493 729.176 528.702 729.176ZM528.447 721.028C527.861 721.028 527.387 721.233 527.023 721.644C526.666 722.054 526.438 722.625 526.338 723.357H530.407V723.199C530.36 722.484 530.17 721.945 529.836 721.582C529.502 721.213 529.039 721.028 528.447 721.028ZM538.37 729.176C537.017 729.176 535.918 728.751 535.074 727.901C534.236 727.046 533.817 725.909 533.817 724.491V724.228C533.817 723.278 533.999 722.432 534.362 721.688C534.731 720.938 535.247 720.354 535.909 719.938C536.571 719.522 537.31 719.314 538.124 719.314C539.419 719.314 540.418 719.728 541.121 720.554C541.83 721.38 542.185 722.549 542.185 724.061V724.922H535.971C536.035 725.707 536.296 726.328 536.753 726.785C537.216 727.242 537.796 727.471 538.493 727.471C539.472 727.471 540.269 727.075 540.884 726.284L542.035 727.383C541.654 727.951 541.145 728.394 540.506 728.71C539.873 729.021 539.161 729.176 538.37 729.176ZM538.115 721.028C537.529 721.028 537.055 721.233 536.691 721.644C536.334 722.054 536.105 722.625 536.006 723.357H540.075V723.199C540.028 722.484 539.838 721.945 539.504 721.582C539.17 721.213 538.707 721.028 538.115 721.028ZM545.832 719.49L545.894 720.589C546.597 719.739 547.52 719.314 548.662 719.314C550.643 719.314 551.65 720.448 551.686 722.716V729H549.55V722.839C549.55 722.235 549.418 721.79 549.154 721.503C548.896 721.21 548.472 721.063 547.88 721.063C547.019 721.063 546.377 721.453 545.955 722.232V729H543.819V719.49H545.832ZM563.331 721.441C563.05 721.395 562.76 721.371 562.461 721.371C561.482 721.371 560.823 721.746 560.483 722.496V729H558.348V719.49H560.387L560.439 720.554C560.955 719.728 561.67 719.314 562.584 719.314C562.889 719.314 563.141 719.355 563.34 719.438L563.331 721.441ZM568.692 729.176C567.339 729.176 566.24 728.751 565.396 727.901C564.559 727.046 564.14 725.909 564.14 724.491V724.228C564.14 723.278 564.321 722.432 564.685 721.688C565.054 720.938 565.569 720.354 566.231 719.938C566.894 719.522 567.632 719.314 568.446 719.314C569.741 719.314 570.74 719.728 571.443 720.554C572.152 721.38 572.507 722.549 572.507 724.061V724.922H566.293C566.357 725.707 566.618 726.328 567.075 726.785C567.538 727.242 568.118 727.471 568.815 727.471C569.794 727.471 570.591 727.075 571.206 726.284L572.357 727.383C571.977 727.951 571.467 728.394 570.828 728.71C570.195 729.021 569.483 729.176 568.692 729.176ZM568.438 721.028C567.852 721.028 567.377 721.233 567.014 721.644C566.656 722.054 566.428 722.625 566.328 723.357H570.397V723.199C570.351 722.484 570.16 721.945 569.826 721.582C569.492 721.213 569.029 721.028 568.438 721.028ZM576.181 719.49L576.242 720.483C576.91 719.704 577.824 719.314 578.984 719.314C580.256 719.314 581.126 719.801 581.595 720.773C582.286 719.801 583.259 719.314 584.513 719.314C585.562 719.314 586.341 719.604 586.851 720.185C587.366 720.765 587.63 721.62 587.642 722.751V729H585.506V722.812C585.506 722.209 585.374 721.767 585.11 721.485C584.847 721.204 584.41 721.063 583.801 721.063C583.314 721.063 582.916 721.195 582.605 721.459C582.301 721.717 582.087 722.057 581.964 722.479L581.973 729H579.837V722.742C579.808 721.623 579.236 721.063 578.123 721.063C577.268 721.063 576.661 721.412 576.304 722.109V729H574.168V719.49H576.181ZM589.435 724.157C589.435 723.226 589.619 722.388 589.988 721.644C590.357 720.894 590.876 720.319 591.544 719.921C592.212 719.517 592.979 719.314 593.847 719.314C595.13 719.314 596.17 719.728 596.967 720.554C597.77 721.38 598.203 722.476 598.268 723.841L598.276 724.342C598.276 725.279 598.095 726.117 597.731 726.855C597.374 727.594 596.858 728.165 596.185 728.569C595.517 728.974 594.743 729.176 593.864 729.176C592.522 729.176 591.447 728.73 590.639 727.84C589.836 726.943 589.435 725.751 589.435 724.263V724.157ZM591.57 724.342C591.57 725.32 591.772 726.088 592.177 726.645C592.581 727.195 593.144 727.471 593.864 727.471C594.585 727.471 595.145 727.189 595.543 726.627C595.947 726.064 596.149 725.241 596.149 724.157C596.149 723.196 595.941 722.435 595.525 721.872C595.115 721.31 594.556 721.028 593.847 721.028C593.149 721.028 592.596 721.307 592.186 721.863C591.775 722.414 591.57 723.24 591.57 724.342ZM603.295 726.293L605.308 719.49H607.514L604.218 729H602.363L599.041 719.49H601.256L603.295 726.293ZM612.919 729.176C611.565 729.176 610.467 728.751 609.623 727.901C608.785 727.046 608.366 725.909 608.366 724.491V724.228C608.366 723.278 608.548 722.432 608.911 721.688C609.28 720.938 609.796 720.354 610.458 719.938C611.12 719.522 611.858 719.314 612.673 719.314C613.968 719.314 614.967 719.728 615.67 720.554C616.379 721.38 616.733 722.549 616.733 724.061V724.922H610.52C610.584 725.707 610.845 726.328 611.302 726.785C611.765 727.242 612.345 727.471 613.042 727.471C614.021 727.471 614.817 727.075 615.433 726.284L616.584 727.383C616.203 727.951 615.693 728.394 615.055 728.71C614.422 729.021 613.71 729.176 612.919 729.176ZM612.664 721.028C612.078 721.028 611.604 721.233 611.24 721.644C610.883 722.054 610.654 722.625 610.555 723.357H614.624V723.199C614.577 722.484 614.387 721.945 614.053 721.582C613.719 721.213 613.256 721.028 612.664 721.028ZM617.999 724.175C617.999 722.71 618.339 721.535 619.019 720.65C619.698 719.76 620.609 719.314 621.752 719.314C622.76 719.314 623.574 719.666 624.195 720.369V715.5H626.331V729H624.397L624.292 728.016C623.653 728.789 622.801 729.176 621.734 729.176C620.621 729.176 619.719 728.728 619.027 727.831C618.342 726.935 617.999 725.716 617.999 724.175ZM620.135 724.359C620.135 725.326 620.319 726.082 620.688 726.627C621.063 727.166 621.594 727.436 622.279 727.436C623.152 727.436 623.791 727.046 624.195 726.267V722.206C623.803 721.444 623.17 721.063 622.297 721.063C621.605 721.063 621.072 721.339 620.697 721.89C620.322 722.435 620.135 723.258 620.135 724.359ZM628.862 731.883L627.711 731.197C628.051 730.664 628.282 730.198 628.405 729.8C628.534 729.407 628.602 729.006 628.607 728.596V726.935H630.532L630.523 728.473C630.518 729.094 630.359 729.715 630.049 730.336C629.744 730.963 629.349 731.479 628.862 731.883ZM188.979 748.527C189.676 747.719 190.558 747.314 191.624 747.314C193.651 747.314 194.68 748.472 194.709 750.786V757H192.573V750.865C192.573 750.209 192.43 749.746 192.143 749.477C191.861 749.201 191.445 749.063 190.895 749.063C190.039 749.063 189.4 749.444 188.979 750.206V757H186.843V743.5H188.979V748.527ZM202.558 757C202.464 756.818 202.382 756.522 202.312 756.112C201.632 756.821 200.8 757.176 199.815 757.176C198.86 757.176 198.081 756.903 197.478 756.358C196.874 755.813 196.572 755.14 196.572 754.337C196.572 753.323 196.947 752.547 197.697 752.008C198.453 751.463 199.531 751.19 200.932 751.19H202.241V750.566C202.241 750.074 202.104 749.682 201.828 749.389C201.553 749.09 201.134 748.94 200.571 748.94C200.085 748.94 199.687 749.063 199.376 749.31C199.065 749.55 198.91 749.857 198.91 750.232H196.774C196.774 749.711 196.947 749.225 197.293 748.773C197.639 748.316 198.107 747.959 198.699 747.701C199.297 747.443 199.962 747.314 200.694 747.314C201.808 747.314 202.695 747.596 203.357 748.158C204.02 748.715 204.359 749.5 204.377 750.514V754.803C204.377 755.658 204.497 756.341 204.737 756.851V757H202.558ZM200.211 755.462C200.633 755.462 201.028 755.359 201.397 755.154C201.772 754.949 202.054 754.674 202.241 754.328V752.535H201.09C200.299 752.535 199.704 752.673 199.306 752.948C198.907 753.224 198.708 753.613 198.708 754.117C198.708 754.527 198.843 754.855 199.112 755.102C199.388 755.342 199.754 755.462 200.211 755.462ZM206.214 752.175C206.214 750.71 206.554 749.535 207.233 748.65C207.913 747.76 208.824 747.314 209.967 747.314C210.975 747.314 211.789 747.666 212.41 748.369V743.5H214.546V757H212.612L212.507 756.016C211.868 756.789 211.016 757.176 209.949 757.176C208.836 757.176 207.934 756.728 207.242 755.831C206.557 754.935 206.214 753.716 206.214 752.175ZM208.35 752.359C208.35 753.326 208.534 754.082 208.903 754.627C209.278 755.166 209.809 755.436 210.494 755.436C211.367 755.436 212.006 755.046 212.41 754.267V750.206C212.018 749.444 211.385 749.063 210.512 749.063C209.82 749.063 209.287 749.339 208.912 749.89C208.537 750.435 208.35 751.258 208.35 752.359ZM223.528 757H221.393V747.49H223.528V757ZM221.261 745.021C221.261 744.692 221.363 744.42 221.568 744.203C221.779 743.986 222.078 743.878 222.465 743.878C222.852 743.878 223.15 743.986 223.361 744.203C223.572 744.42 223.678 744.692 223.678 745.021C223.678 745.343 223.572 745.612 223.361 745.829C223.15 746.04 222.852 746.146 222.465 746.146C222.078 746.146 221.779 746.04 221.568 745.829C221.363 745.612 221.261 745.343 221.261 745.021ZM228.538 745.179V747.49H230.217V749.072H228.538V754.381C228.538 754.744 228.608 755.008 228.749 755.172C228.896 755.33 229.153 755.409 229.522 755.409C229.769 755.409 230.018 755.38 230.27 755.321V756.974C229.783 757.108 229.314 757.176 228.863 757.176C227.223 757.176 226.402 756.271 226.402 754.46V749.072H224.838V747.49H226.402V745.179H228.538ZM237.187 754.416C237.187 754.035 237.028 753.745 236.712 753.546C236.401 753.347 235.883 753.171 235.156 753.019C234.43 752.866 233.823 752.673 233.337 752.438C232.271 751.923 231.737 751.176 231.737 750.197C231.737 749.377 232.083 748.691 232.774 748.141C233.466 747.59 234.345 747.314 235.411 747.314C236.548 747.314 237.465 747.596 238.162 748.158C238.865 748.721 239.217 749.45 239.217 750.347H237.081C237.081 749.937 236.929 749.597 236.624 749.327C236.319 749.052 235.915 748.914 235.411 748.914C234.942 748.914 234.559 749.022 234.26 749.239C233.967 749.456 233.82 749.746 233.82 750.109C233.82 750.438 233.958 750.692 234.233 750.874C234.509 751.056 235.065 751.24 235.903 751.428C236.741 751.609 237.397 751.829 237.872 752.087C238.353 752.339 238.707 752.644 238.936 753.001C239.17 753.358 239.287 753.792 239.287 754.302C239.287 755.157 238.933 755.852 238.224 756.385C237.515 756.912 236.586 757.176 235.438 757.176C234.658 757.176 233.964 757.035 233.354 756.754C232.745 756.473 232.271 756.086 231.931 755.594C231.591 755.102 231.421 754.571 231.421 754.003H233.495C233.524 754.507 233.715 754.896 234.066 755.172C234.418 755.441 234.884 755.576 235.464 755.576C236.026 755.576 236.454 755.471 236.747 755.26C237.04 755.043 237.187 754.762 237.187 754.416ZM247.619 747.49L247.681 748.589C248.384 747.739 249.307 747.314 250.449 747.314C252.43 747.314 253.438 748.448 253.473 750.716V757H251.337V750.839C251.337 750.235 251.205 749.79 250.941 749.503C250.684 749.21 250.259 749.063 249.667 749.063C248.806 749.063 248.164 749.453 247.742 750.232V757H245.606V747.49H247.619ZM261.339 757C261.245 756.818 261.163 756.522 261.093 756.112C260.413 756.821 259.581 757.176 258.597 757.176C257.642 757.176 256.862 756.903 256.259 756.358C255.655 755.813 255.354 755.14 255.354 754.337C255.354 753.323 255.729 752.547 256.479 752.008C257.234 751.463 258.312 751.19 259.713 751.19H261.022V750.566C261.022 750.074 260.885 749.682 260.609 749.389C260.334 749.09 259.915 748.94 259.353 748.94C258.866 748.94 258.468 749.063 258.157 749.31C257.847 749.55 257.691 749.857 257.691 750.232H255.556C255.556 749.711 255.729 749.225 256.074 748.773C256.42 748.316 256.889 747.959 257.48 747.701C258.078 747.443 258.743 747.314 259.476 747.314C260.589 747.314 261.477 747.596 262.139 748.158C262.801 748.715 263.141 749.5 263.158 750.514V754.803C263.158 755.658 263.278 756.341 263.519 756.851V757H261.339ZM258.992 755.462C259.414 755.462 259.81 755.359 260.179 755.154C260.554 754.949 260.835 754.674 261.022 754.328V752.535H259.871C259.08 752.535 258.485 752.673 258.087 752.948C257.688 753.224 257.489 753.613 257.489 754.117C257.489 754.527 257.624 754.855 257.894 755.102C258.169 755.342 258.535 755.462 258.992 755.462ZM267.403 747.49L267.465 748.483C268.133 747.704 269.047 747.314 270.207 747.314C271.479 747.314 272.349 747.801 272.817 748.773C273.509 747.801 274.481 747.314 275.735 747.314C276.784 747.314 277.563 747.604 278.073 748.185C278.589 748.765 278.853 749.62 278.864 750.751V757H276.729V750.812C276.729 750.209 276.597 749.767 276.333 749.485C276.069 749.204 275.633 749.063 275.023 749.063C274.537 749.063 274.139 749.195 273.828 749.459C273.523 749.717 273.31 750.057 273.187 750.479L273.195 757H271.06V750.742C271.03 749.623 270.459 749.063 269.346 749.063C268.49 749.063 267.884 749.412 267.526 750.109V757H265.391V747.49H267.403ZM285.245 757.176C283.892 757.176 282.793 756.751 281.949 755.901C281.111 755.046 280.692 753.909 280.692 752.491V752.228C280.692 751.278 280.874 750.432 281.237 749.688C281.606 748.938 282.122 748.354 282.784 747.938C283.446 747.522 284.185 747.314 284.999 747.314C286.294 747.314 287.293 747.728 287.996 748.554C288.705 749.38 289.06 750.549 289.06 752.061V752.922H282.846C282.91 753.707 283.171 754.328 283.628 754.785C284.091 755.242 284.671 755.471 285.368 755.471C286.347 755.471 287.144 755.075 287.759 754.284L288.91 755.383C288.529 755.951 288.02 756.394 287.381 756.71C286.748 757.021 286.036 757.176 285.245 757.176ZM284.99 749.028C284.404 749.028 283.93 749.233 283.566 749.644C283.209 750.054 282.98 750.625 282.881 751.357H286.95V751.199C286.903 750.484 286.713 749.945 286.379 749.582C286.045 749.213 285.582 749.028 284.99 749.028ZM299.114 755.471C299.647 755.471 300.09 755.315 300.441 755.005C300.793 754.694 300.98 754.311 301.004 753.854H303.017C302.993 754.445 302.809 754.999 302.463 755.515C302.117 756.024 301.648 756.429 301.057 756.728C300.465 757.026 299.826 757.176 299.141 757.176C297.811 757.176 296.756 756.745 295.977 755.884C295.197 755.022 294.808 753.833 294.808 752.315V752.096C294.808 750.648 295.194 749.491 295.968 748.624C296.741 747.751 297.796 747.314 299.132 747.314C300.263 747.314 301.183 747.646 301.892 748.308C302.606 748.964 302.981 749.828 303.017 750.9H301.004C300.98 750.355 300.793 749.907 300.441 749.556C300.096 749.204 299.653 749.028 299.114 749.028C298.423 749.028 297.89 749.28 297.515 749.784C297.14 750.282 296.949 751.041 296.943 752.061V752.403C296.943 753.435 297.128 754.205 297.497 754.715C297.872 755.219 298.411 755.471 299.114 755.471ZM306.734 748.527C307.432 747.719 308.313 747.314 309.38 747.314C311.407 747.314 312.436 748.472 312.465 750.786V757H310.329V750.865C310.329 750.209 310.186 749.746 309.898 749.477C309.617 749.201 309.201 749.063 308.65 749.063C307.795 749.063 307.156 749.444 306.734 750.206V757H304.599V743.5H306.734V748.527ZM320.313 757C320.22 756.818 320.138 756.522 320.067 756.112C319.388 756.821 318.556 757.176 317.571 757.176C316.616 757.176 315.837 756.903 315.233 756.358C314.63 755.813 314.328 755.14 314.328 754.337C314.328 753.323 314.703 752.547 315.453 752.008C316.209 751.463 317.287 751.19 318.688 751.19H319.997V750.566C319.997 750.074 319.859 749.682 319.584 749.389C319.309 749.09 318.89 748.94 318.327 748.94C317.841 748.94 317.442 749.063 317.132 749.31C316.821 749.55 316.666 749.857 316.666 750.232H314.53C314.53 749.711 314.703 749.225 315.049 748.773C315.395 748.316 315.863 747.959 316.455 747.701C317.053 747.443 317.718 747.314 318.45 747.314C319.563 747.314 320.451 747.596 321.113 748.158C321.775 748.715 322.115 749.5 322.133 750.514V754.803C322.133 755.658 322.253 756.341 322.493 756.851V757H320.313ZM317.967 755.462C318.389 755.462 318.784 755.359 319.153 755.154C319.528 754.949 319.81 754.674 319.997 754.328V752.535H318.846C318.055 752.535 317.46 752.673 317.062 752.948C316.663 753.224 316.464 753.613 316.464 754.117C316.464 754.527 316.599 754.855 316.868 755.102C317.144 755.342 317.51 755.462 317.967 755.462ZM326.352 747.49L326.413 748.589C327.116 747.739 328.039 747.314 329.182 747.314C331.162 747.314 332.17 748.448 332.205 750.716V757H330.069V750.839C330.069 750.235 329.938 749.79 329.674 749.503C329.416 749.21 328.991 749.063 328.399 749.063C327.538 749.063 326.896 749.453 326.475 750.232V757H324.339V747.49H326.352ZM334.016 752.175C334.016 750.698 334.361 749.521 335.053 748.642C335.75 747.757 336.673 747.314 337.821 747.314C338.905 747.314 339.758 747.692 340.379 748.448L340.476 747.49H342.4V756.71C342.4 757.958 342.011 758.942 341.231 759.663C340.458 760.384 339.412 760.744 338.094 760.744C337.396 760.744 336.714 760.598 336.046 760.305C335.384 760.018 334.88 759.64 334.534 759.171L335.545 757.888C336.201 758.667 337.01 759.057 337.971 759.057C338.68 759.057 339.239 758.863 339.649 758.477C340.06 758.096 340.265 757.533 340.265 756.789V756.147C339.649 756.833 338.829 757.176 337.804 757.176C336.69 757.176 335.779 756.733 335.07 755.849C334.367 754.964 334.016 753.739 334.016 752.175ZM336.143 752.359C336.143 753.314 336.336 754.067 336.723 754.618C337.115 755.163 337.657 755.436 338.349 755.436C339.21 755.436 339.849 755.066 340.265 754.328V750.145C339.86 749.424 339.228 749.063 338.366 749.063C337.663 749.063 337.115 749.342 336.723 749.898C336.336 750.455 336.143 751.275 336.143 752.359ZM348.79 757.176C347.437 757.176 346.338 756.751 345.494 755.901C344.656 755.046 344.237 753.909 344.237 752.491V752.228C344.237 751.278 344.419 750.432 344.782 749.688C345.151 748.938 345.667 748.354 346.329 747.938C346.991 747.522 347.729 747.314 348.544 747.314C349.839 747.314 350.838 747.728 351.541 748.554C352.25 749.38 352.604 750.549 352.604 752.061V752.922H346.391C346.455 753.707 346.716 754.328 347.173 754.785C347.636 755.242 348.216 755.471 348.913 755.471C349.892 755.471 350.688 755.075 351.304 754.284L352.455 755.383C352.074 755.951 351.564 756.394 350.926 756.71C350.293 757.021 349.581 757.176 348.79 757.176ZM348.535 749.028C347.949 749.028 347.475 749.233 347.111 749.644C346.754 750.054 346.525 750.625 346.426 751.357H350.495V751.199C350.448 750.484 350.258 749.945 349.924 749.582C349.59 749.213 349.127 749.028 348.535 749.028ZM353.87 752.175C353.87 750.71 354.21 749.535 354.89 748.65C355.569 747.76 356.48 747.314 357.623 747.314C358.631 747.314 359.445 747.666 360.066 748.369V743.5H362.202V757H360.269L360.163 756.016C359.524 756.789 358.672 757.176 357.605 757.176C356.492 757.176 355.59 756.728 354.898 755.831C354.213 754.935 353.87 753.716 353.87 752.175ZM356.006 752.359C356.006 753.326 356.19 754.082 356.56 754.627C356.935 755.166 357.465 755.436 358.15 755.436C359.023 755.436 359.662 755.046 360.066 754.267V750.206C359.674 749.444 359.041 749.063 358.168 749.063C357.477 749.063 356.943 749.339 356.568 749.89C356.193 750.435 356.006 751.258 356.006 752.359ZM364.733 759.883L363.582 759.197C363.922 758.664 364.153 758.198 364.276 757.8C364.405 757.407 364.473 757.006 364.479 756.596V754.935H366.403L366.395 756.473C366.389 757.094 366.23 757.715 365.92 758.336C365.615 758.963 365.22 759.479 364.733 759.883ZM372.468 752.157C372.468 751.226 372.652 750.388 373.021 749.644C373.391 748.894 373.909 748.319 374.577 747.921C375.245 747.517 376.013 747.314 376.88 747.314C378.163 747.314 379.203 747.728 380 748.554C380.803 749.38 381.236 750.476 381.301 751.841L381.31 752.342C381.31 753.279 381.128 754.117 380.765 754.855C380.407 755.594 379.892 756.165 379.218 756.569C378.55 756.974 377.776 757.176 376.897 757.176C375.556 757.176 374.48 756.73 373.672 755.84C372.869 754.943 372.468 753.751 372.468 752.263V752.157ZM374.604 752.342C374.604 753.32 374.806 754.088 375.21 754.645C375.614 755.195 376.177 755.471 376.897 755.471C377.618 755.471 378.178 755.189 378.576 754.627C378.98 754.064 379.183 753.241 379.183 752.157C379.183 751.196 378.975 750.435 378.559 749.872C378.148 749.31 377.589 749.028 376.88 749.028C376.183 749.028 375.629 749.307 375.219 749.863C374.809 750.414 374.604 751.24 374.604 752.342ZM388.095 749.441C387.813 749.395 387.523 749.371 387.225 749.371C386.246 749.371 385.587 749.746 385.247 750.496V757H383.111V747.49H385.15L385.203 748.554C385.719 747.728 386.434 747.314 387.348 747.314C387.652 747.314 387.904 747.355 388.104 747.438L388.095 749.441ZM396.198 757H394.062V747.49H396.198V757ZM393.931 745.021C393.931 744.692 394.033 744.42 394.238 744.203C394.449 743.986 394.748 743.878 395.135 743.878C395.521 743.878 395.82 743.986 396.031 744.203C396.242 744.42 396.348 744.692 396.348 745.021C396.348 745.343 396.242 745.612 396.031 745.829C395.82 746.04 395.521 746.146 395.135 746.146C394.748 746.146 394.449 746.04 394.238 745.829C394.033 745.612 393.931 745.343 393.931 745.021ZM403.862 754.416C403.862 754.035 403.704 753.745 403.388 753.546C403.077 753.347 402.559 753.171 401.832 753.019C401.105 752.866 400.499 752.673 400.013 752.438C398.946 751.923 398.413 751.176 398.413 750.197C398.413 749.377 398.759 748.691 399.45 748.141C400.142 747.59 401.021 747.314 402.087 747.314C403.224 747.314 404.141 747.596 404.838 748.158C405.541 748.721 405.893 749.45 405.893 750.347H403.757C403.757 749.937 403.604 749.597 403.3 749.327C402.995 749.052 402.591 748.914 402.087 748.914C401.618 748.914 401.234 749.022 400.936 749.239C400.643 749.456 400.496 749.746 400.496 750.109C400.496 750.438 400.634 750.692 400.909 750.874C401.185 751.056 401.741 751.24 402.579 751.428C403.417 751.609 404.073 751.829 404.548 752.087C405.028 752.339 405.383 752.644 405.611 753.001C405.846 753.358 405.963 753.792 405.963 754.302C405.963 755.157 405.608 755.852 404.899 756.385C404.19 756.912 403.262 757.176 402.113 757.176C401.334 757.176 400.64 757.035 400.03 756.754C399.421 756.473 398.946 756.086 398.606 755.594C398.267 755.102 398.097 754.571 398.097 754.003H400.171C400.2 754.507 400.391 754.896 400.742 755.172C401.094 755.441 401.56 755.576 402.14 755.576C402.702 755.576 403.13 755.471 403.423 755.26C403.716 755.043 403.862 754.762 403.862 754.416ZM414.989 745.179V747.49H416.668V749.072H414.989V754.381C414.989 754.744 415.06 755.008 415.2 755.172C415.347 755.33 415.604 755.409 415.974 755.409C416.22 755.409 416.469 755.38 416.721 755.321V756.974C416.234 757.108 415.766 757.176 415.314 757.176C413.674 757.176 412.854 756.271 412.854 754.46V749.072H411.289V747.49H412.854V745.179H414.989ZM422.495 757.176C421.142 757.176 420.043 756.751 419.199 755.901C418.361 755.046 417.942 753.909 417.942 752.491V752.228C417.942 751.278 418.124 750.432 418.487 749.688C418.856 748.938 419.372 748.354 420.034 747.938C420.696 747.522 421.435 747.314 422.249 747.314C423.544 747.314 424.543 747.728 425.246 748.554C425.955 749.38 426.31 750.549 426.31 752.061V752.922H420.096C420.16 753.707 420.421 754.328 420.878 754.785C421.341 755.242 421.921 755.471 422.618 755.471C423.597 755.471 424.394 755.075 425.009 754.284L426.16 755.383C425.779 755.951 425.27 756.394 424.631 756.71C423.998 757.021 423.286 757.176 422.495 757.176ZM422.24 749.028C421.654 749.028 421.18 749.233 420.816 749.644C420.459 750.054 420.23 750.625 420.131 751.357H424.2V751.199C424.153 750.484 423.963 749.945 423.629 749.582C423.295 749.213 422.832 749.028 422.24 749.028ZM429.983 747.49L430.045 748.483C430.713 747.704 431.627 747.314 432.787 747.314C434.059 747.314 434.929 747.801 435.397 748.773C436.089 747.801 437.062 747.314 438.315 747.314C439.364 747.314 440.144 747.604 440.653 748.185C441.169 748.765 441.433 749.62 441.444 750.751V757H439.309V750.812C439.309 750.209 439.177 749.767 438.913 749.485C438.649 749.204 438.213 749.063 437.604 749.063C437.117 749.063 436.719 749.195 436.408 749.459C436.104 749.717 435.89 750.057 435.767 750.479L435.775 757H433.64V750.742C433.61 749.623 433.039 749.063 431.926 749.063C431.07 749.063 430.464 749.412 430.106 750.109V757H427.971V747.49H429.983ZM451.965 752.342C451.965 753.812 451.631 754.987 450.963 755.866C450.295 756.739 449.398 757.176 448.273 757.176C447.23 757.176 446.396 756.833 445.769 756.147V760.656H443.633V747.49H445.602L445.689 748.457C446.316 747.695 447.169 747.314 448.247 747.314C449.407 747.314 450.315 747.748 450.972 748.615C451.634 749.477 451.965 750.675 451.965 752.21V752.342ZM449.838 752.157C449.838 751.208 449.647 750.455 449.267 749.898C448.892 749.342 448.353 749.063 447.649 749.063C446.776 749.063 446.149 749.424 445.769 750.145V754.363C446.155 755.102 446.788 755.471 447.667 755.471C448.347 755.471 448.877 755.198 449.258 754.653C449.645 754.103 449.838 753.271 449.838 752.157ZM453.38 752.157C453.38 751.226 453.564 750.388 453.934 749.644C454.303 748.894 454.821 748.319 455.489 747.921C456.157 747.517 456.925 747.314 457.792 747.314C459.075 747.314 460.115 747.728 460.912 748.554C461.715 749.38 462.148 750.476 462.213 751.841L462.222 752.342C462.222 753.279 462.04 754.117 461.677 754.855C461.319 755.594 460.804 756.165 460.13 756.569C459.462 756.974 458.688 757.176 457.81 757.176C456.468 757.176 455.393 756.73 454.584 755.84C453.781 754.943 453.38 753.751 453.38 752.263V752.157ZM455.516 752.342C455.516 753.32 455.718 754.088 456.122 754.645C456.526 755.195 457.089 755.471 457.81 755.471C458.53 755.471 459.09 755.189 459.488 754.627C459.893 754.064 460.095 753.241 460.095 752.157C460.095 751.196 459.887 750.435 459.471 749.872C459.061 749.31 458.501 749.028 457.792 749.028C457.095 749.028 456.541 749.307 456.131 749.863C455.721 750.414 455.516 751.24 455.516 752.342ZM469.007 749.441C468.726 749.395 468.436 749.371 468.137 749.371C467.158 749.371 466.499 749.746 466.159 750.496V757H464.023V747.49H466.062L466.115 748.554C466.631 747.728 467.346 747.314 468.26 747.314C468.564 747.314 468.816 747.355 469.016 747.438L469.007 749.441ZM475.774 757C475.681 756.818 475.599 756.522 475.528 756.112C474.849 756.821 474.017 757.176 473.032 757.176C472.077 757.176 471.298 756.903 470.694 756.358C470.091 755.813 469.789 755.14 469.789 754.337C469.789 753.323 470.164 752.547 470.914 752.008C471.67 751.463 472.748 751.19 474.148 751.19H475.458V750.566C475.458 750.074 475.32 749.682 475.045 749.389C474.77 749.09 474.351 748.94 473.788 748.94C473.302 748.94 472.903 749.063 472.593 749.31C472.282 749.55 472.127 749.857 472.127 750.232H469.991C469.991 749.711 470.164 749.225 470.51 748.773C470.855 748.316 471.324 747.959 471.916 747.701C472.514 747.443 473.179 747.314 473.911 747.314C475.024 747.314 475.912 747.596 476.574 748.158C477.236 748.715 477.576 749.5 477.594 750.514V754.803C477.594 755.658 477.714 756.341 477.954 756.851V757H475.774ZM473.428 755.462C473.85 755.462 474.245 755.359 474.614 755.154C474.989 754.949 475.271 754.674 475.458 754.328V752.535H474.307C473.516 752.535 472.921 752.673 472.522 752.948C472.124 753.224 471.925 753.613 471.925 754.117C471.925 754.527 472.06 754.855 472.329 755.102C472.604 755.342 472.971 755.462 473.428 755.462ZM484.81 749.441C484.528 749.395 484.238 749.371 483.939 749.371C482.961 749.371 482.302 749.746 481.962 750.496V757H479.826V747.49H481.865L481.918 748.554C482.434 747.728 483.148 747.314 484.062 747.314C484.367 747.314 484.619 747.355 484.818 747.438L484.81 749.441ZM488.431 757H486.295V747.49H488.431V757ZM486.163 745.021C486.163 744.692 486.266 744.42 486.471 744.203C486.682 743.986 486.98 743.878 487.367 743.878C487.754 743.878 488.053 743.986 488.264 744.203C488.475 744.42 488.58 744.692 488.58 745.021C488.58 745.343 488.475 745.612 488.264 745.829C488.053 746.04 487.754 746.146 487.367 746.146C486.98 746.146 486.682 746.04 486.471 745.829C486.266 745.612 486.163 745.343 486.163 745.021ZM493.036 757H490.9V743.5H493.036V757ZM498.696 753.941L500.63 747.49H502.906L499.127 758.441C498.547 760.041 497.562 760.841 496.174 760.841C495.863 760.841 495.521 760.788 495.146 760.683V759.03L495.55 759.057C496.089 759.057 496.493 758.957 496.763 758.758C497.038 758.564 497.255 758.236 497.413 757.773L497.721 756.956L494.381 747.49H496.684L498.696 753.941ZM514.385 756.068C513.758 756.807 512.867 757.176 511.713 757.176C510.682 757.176 509.899 756.874 509.366 756.271C508.839 755.667 508.575 754.794 508.575 753.651V747.49H510.711V753.625C510.711 754.832 511.212 755.436 512.214 755.436C513.251 755.436 513.951 755.063 514.314 754.319V747.49H516.45V757H514.438L514.385 756.068ZM520.607 747.49L520.669 748.589C521.372 747.739 522.295 747.314 523.438 747.314C525.418 747.314 526.426 748.448 526.461 750.716V757H524.325V750.839C524.325 750.235 524.193 749.79 523.93 749.503C523.672 749.21 523.247 749.063 522.655 749.063C521.794 749.063 521.152 749.453 520.73 750.232V757H518.595V747.49H520.607ZM534.327 757C534.233 756.818 534.151 756.522 534.081 756.112C533.401 756.821 532.569 757.176 531.585 757.176C530.63 757.176 529.851 756.903 529.247 756.358C528.644 755.813 528.342 755.14 528.342 754.337C528.342 753.323 528.717 752.547 529.467 752.008C530.223 751.463 531.301 751.19 532.701 751.19H534.011V750.566C534.011 750.074 533.873 749.682 533.598 749.389C533.322 749.09 532.903 748.94 532.341 748.94C531.854 748.94 531.456 749.063 531.146 749.31C530.835 749.55 530.68 749.857 530.68 750.232H528.544C528.544 749.711 528.717 749.225 529.062 748.773C529.408 748.316 529.877 747.959 530.469 747.701C531.066 747.443 531.731 747.314 532.464 747.314C533.577 747.314 534.465 747.596 535.127 748.158C535.789 748.715 536.129 749.5 536.146 750.514V754.803C536.146 755.658 536.267 756.341 536.507 756.851V757H534.327ZM531.98 755.462C532.402 755.462 532.798 755.359 533.167 755.154C533.542 754.949 533.823 754.674 534.011 754.328V752.535H532.859C532.068 752.535 531.474 752.673 531.075 752.948C530.677 753.224 530.478 753.613 530.478 754.117C530.478 754.527 530.612 754.855 530.882 755.102C531.157 755.342 531.523 755.462 531.98 755.462ZM541.596 754.293L543.608 747.49H545.814L542.519 757H540.664L537.342 747.49H539.557L541.596 754.293ZM552.696 757C552.603 756.818 552.521 756.522 552.45 756.112C551.771 756.821 550.938 757.176 549.954 757.176C548.999 757.176 548.22 756.903 547.616 756.358C547.013 755.813 546.711 755.14 546.711 754.337C546.711 753.323 547.086 752.547 547.836 752.008C548.592 751.463 549.67 751.19 551.07 751.19H552.38V750.566C552.38 750.074 552.242 749.682 551.967 749.389C551.691 749.09 551.272 748.94 550.71 748.94C550.224 748.94 549.825 749.063 549.515 749.31C549.204 749.55 549.049 749.857 549.049 750.232H546.913C546.913 749.711 547.086 749.225 547.432 748.773C547.777 748.316 548.246 747.959 548.838 747.701C549.436 747.443 550.101 747.314 550.833 747.314C551.946 747.314 552.834 747.596 553.496 748.158C554.158 748.715 554.498 749.5 554.516 750.514V754.803C554.516 755.658 554.636 756.341 554.876 756.851V757H552.696ZM550.35 755.462C550.771 755.462 551.167 755.359 551.536 755.154C551.911 754.949 552.192 754.674 552.38 754.328V752.535H551.229C550.438 752.535 549.843 752.673 549.444 752.948C549.046 753.224 548.847 753.613 548.847 754.117C548.847 754.527 548.981 754.855 549.251 755.102C549.526 755.342 549.893 755.462 550.35 755.462ZM559.024 757H556.889V747.49H559.024V757ZM556.757 745.021C556.757 744.692 556.859 744.42 557.064 744.203C557.275 743.986 557.574 743.878 557.961 743.878C558.348 743.878 558.646 743.986 558.857 744.203C559.068 744.42 559.174 744.692 559.174 745.021C559.174 745.343 559.068 745.612 558.857 745.829C558.646 746.04 558.348 746.146 557.961 746.146C557.574 746.146 557.275 746.04 557.064 745.829C556.859 745.612 556.757 745.343 556.757 745.021ZM563.63 757H561.494V743.5H563.63V757ZM571.646 757C571.552 756.818 571.47 756.522 571.399 756.112C570.72 756.821 569.888 757.176 568.903 757.176C567.948 757.176 567.169 756.903 566.565 756.358C565.962 755.813 565.66 755.14 565.66 754.337C565.66 753.323 566.035 752.547 566.785 752.008C567.541 751.463 568.619 751.19 570.02 751.19H571.329V750.566C571.329 750.074 571.191 749.682 570.916 749.389C570.641 749.09 570.222 748.94 569.659 748.94C569.173 748.94 568.774 749.063 568.464 749.31C568.153 749.55 567.998 749.857 567.998 750.232H565.862C565.862 749.711 566.035 749.225 566.381 748.773C566.727 748.316 567.195 747.959 567.787 747.701C568.385 747.443 569.05 747.314 569.782 747.314C570.896 747.314 571.783 747.596 572.445 748.158C573.107 748.715 573.447 749.5 573.465 750.514V754.803C573.465 755.658 573.585 756.341 573.825 756.851V757H571.646ZM569.299 755.462C569.721 755.462 570.116 755.359 570.485 755.154C570.86 754.949 571.142 754.674 571.329 754.328V752.535H570.178C569.387 752.535 568.792 752.673 568.394 752.948C567.995 753.224 567.796 753.613 567.796 754.117C567.796 754.527 567.931 754.855 568.2 755.102C568.476 755.342 568.842 755.462 569.299 755.462ZM584.047 752.342C584.047 753.818 583.716 754.993 583.054 755.866C582.397 756.739 581.492 757.176 580.338 757.176C579.225 757.176 578.357 756.774 577.736 755.972L577.631 757H575.697V743.5H577.833V748.404C578.448 747.678 579.277 747.314 580.32 747.314C581.48 747.314 582.392 747.745 583.054 748.606C583.716 749.468 584.047 750.672 584.047 752.219V752.342ZM581.911 752.157C581.911 751.126 581.729 750.353 581.366 749.837C581.003 749.321 580.476 749.063 579.784 749.063C578.858 749.063 578.208 749.468 577.833 750.276V754.196C578.214 755.022 578.87 755.436 579.802 755.436C580.47 755.436 580.985 755.187 581.349 754.688C581.712 754.19 581.899 753.438 581.911 752.43V752.157ZM588.116 757H585.98V743.5H588.116V757ZM594.638 757.176C593.284 757.176 592.186 756.751 591.342 755.901C590.504 755.046 590.085 753.909 590.085 752.491V752.228C590.085 751.278 590.267 750.432 590.63 749.688C590.999 748.938 591.515 748.354 592.177 747.938C592.839 747.522 593.577 747.314 594.392 747.314C595.687 747.314 596.686 747.728 597.389 748.554C598.098 749.38 598.452 750.549 598.452 752.061V752.922H592.238C592.303 753.707 592.563 754.328 593.021 754.785C593.483 755.242 594.063 755.471 594.761 755.471C595.739 755.471 596.536 755.075 597.151 754.284L598.303 755.383C597.922 755.951 597.412 756.394 596.773 756.71C596.141 757.021 595.429 757.176 594.638 757.176ZM594.383 749.028C593.797 749.028 593.322 749.233 592.959 749.644C592.602 750.054 592.373 750.625 592.273 751.357H596.343V751.199C596.296 750.484 596.105 749.945 595.771 749.582C595.438 749.213 594.975 749.028 594.383 749.028ZM601.449 754.75C601.848 754.75 602.155 754.864 602.372 755.093C602.589 755.315 602.697 755.597 602.697 755.937C602.697 756.271 602.589 756.549 602.372 756.771C602.155 756.988 601.848 757.097 601.449 757.097C601.068 757.097 600.767 756.988 600.544 756.771C600.321 756.555 600.21 756.276 600.21 755.937C600.21 755.597 600.318 755.315 600.535 755.093C600.752 754.864 601.057 754.75 601.449 754.75Z" fill="black"/>
<path d="M354.045 372.203H379.482V416.891H354.045V470H296.123V416.891H199.357L195.92 381.484L296.123 220.266V219.75H354.045V372.203ZM251.092 372.203H296.123V295.203L292.514 301.047L251.092 372.203ZM578.686 367.734C578.686 401.536 571.066 427.604 555.826 445.938C540.701 464.271 519.331 473.438 491.717 473.438C463.873 473.438 442.331 464.214 427.092 445.766C411.852 427.318 404.232 401.307 404.232 367.734V322.016C404.232 288.214 411.795 262.146 426.92 243.812C442.16 225.479 463.644 216.312 491.373 216.312C519.102 216.312 540.587 225.536 555.826 243.984C571.066 262.432 578.686 288.5 578.686 322.188V367.734ZM520.764 314.625C520.764 296.635 518.415 283.229 513.717 274.406C509.019 265.469 501.571 261 491.373 261C481.404 261 474.128 265.125 469.545 273.375C465.076 281.625 462.67 294.115 462.326 310.844V374.781C462.326 393.458 464.675 407.151 469.373 415.859C474.071 424.453 481.519 428.75 491.717 428.75C501.571 428.75 508.847 424.568 513.545 416.203C518.243 407.724 520.649 394.49 520.764 376.5V314.625ZM761.732 372.203H787.17V416.891H761.732V470H703.811V416.891H607.045L603.607 381.484L703.811 220.266V219.75H761.732V372.203ZM658.779 372.203H703.811V295.203L700.201 301.047L658.779 372.203Z" fill="url(#paint1_linear)"/>
<path d="M310.08 871V858.203H314.466C315.913 858.203 317.015 858.493 317.771 859.073C318.526 859.653 318.904 860.518 318.904 861.666C318.904 862.252 318.746 862.779 318.43 863.248C318.113 863.717 317.65 864.08 317.041 864.338C317.732 864.525 318.266 864.88 318.641 865.401C319.021 865.917 319.212 866.538 319.212 867.265C319.212 868.466 318.825 869.389 318.052 870.033C317.284 870.678 316.183 871 314.747 871H310.08ZM312.304 865.226V869.225H314.773C315.471 869.225 316.016 869.052 316.408 868.706C316.801 868.36 316.997 867.88 316.997 867.265C316.997 865.935 316.317 865.255 314.958 865.226H312.304ZM312.304 863.591H314.483C315.175 863.591 315.714 863.436 316.101 863.125C316.493 862.809 316.689 862.363 316.689 861.789C316.689 861.156 316.508 860.699 316.145 860.418C315.787 860.137 315.228 859.996 314.466 859.996H312.304V863.591ZM326.911 871C326.817 870.818 326.735 870.522 326.665 870.112C325.985 870.821 325.153 871.176 324.169 871.176C323.214 871.176 322.435 870.903 321.831 870.358C321.228 869.813 320.926 869.14 320.926 868.337C320.926 867.323 321.301 866.547 322.051 866.008C322.807 865.463 323.885 865.19 325.285 865.19H326.595V864.566C326.595 864.074 326.457 863.682 326.182 863.389C325.906 863.09 325.487 862.94 324.925 862.94C324.438 862.94 324.04 863.063 323.729 863.31C323.419 863.55 323.264 863.857 323.264 864.232H321.128C321.128 863.711 321.301 863.225 321.646 862.773C321.992 862.316 322.461 861.959 323.053 861.701C323.65 861.443 324.315 861.314 325.048 861.314C326.161 861.314 327.049 861.596 327.711 862.158C328.373 862.715 328.713 863.5 328.73 864.514V868.803C328.73 869.658 328.851 870.341 329.091 870.851V871H326.911ZM324.564 869.462C324.986 869.462 325.382 869.359 325.751 869.154C326.126 868.949 326.407 868.674 326.595 868.328V866.535H325.443C324.652 866.535 324.058 866.673 323.659 866.948C323.261 867.224 323.062 867.613 323.062 868.117C323.062 868.527 323.196 868.855 323.466 869.102C323.741 869.342 324.107 869.462 324.564 869.462ZM334.874 869.471C335.407 869.471 335.85 869.315 336.201 869.005C336.553 868.694 336.74 868.311 336.764 867.854H338.776C338.753 868.445 338.568 868.999 338.223 869.515C337.877 870.024 337.408 870.429 336.816 870.728C336.225 871.026 335.586 871.176 334.9 871.176C333.57 871.176 332.516 870.745 331.736 869.884C330.957 869.022 330.567 867.833 330.567 866.315V866.096C330.567 864.648 330.954 863.491 331.728 862.624C332.501 861.751 333.556 861.314 334.892 861.314C336.022 861.314 336.942 861.646 337.651 862.308C338.366 862.964 338.741 863.828 338.776 864.9H336.764C336.74 864.355 336.553 863.907 336.201 863.556C335.855 863.204 335.413 863.028 334.874 863.028C334.183 863.028 333.649 863.28 333.274 863.784C332.899 864.282 332.709 865.041 332.703 866.061V866.403C332.703 867.435 332.888 868.205 333.257 868.715C333.632 869.219 334.171 869.471 334.874 869.471ZM343.479 866.922L342.529 867.897V871H340.394V857.5H342.529V865.287L343.197 864.452L345.825 861.49H348.392L344.858 865.454L348.77 871H346.3L343.479 866.922ZM356.952 859.179V861.49H358.631V863.072H356.952V868.381C356.952 868.744 357.022 869.008 357.163 869.172C357.31 869.33 357.567 869.409 357.937 869.409C358.183 869.409 358.432 869.38 358.684 869.321V870.974C358.197 871.108 357.729 871.176 357.277 871.176C355.637 871.176 354.816 870.271 354.816 868.46V863.072H353.252V861.49H354.816V859.179H356.952ZM359.606 866.157C359.606 865.226 359.791 864.388 360.16 863.644C360.529 862.894 361.048 862.319 361.716 861.921C362.384 861.517 363.151 861.314 364.019 861.314C365.302 861.314 366.342 861.728 367.139 862.554C367.941 863.38 368.375 864.476 368.439 865.841L368.448 866.342C368.448 867.279 368.267 868.117 367.903 868.855C367.546 869.594 367.03 870.165 366.356 870.569C365.688 870.974 364.915 871.176 364.036 871.176C362.694 871.176 361.619 870.73 360.811 869.84C360.008 868.943 359.606 867.751 359.606 866.263V866.157ZM361.742 866.342C361.742 867.32 361.944 868.088 362.349 868.645C362.753 869.195 363.315 869.471 364.036 869.471C364.757 869.471 365.316 869.189 365.715 868.627C366.119 868.064 366.321 867.241 366.321 866.157C366.321 865.196 366.113 864.435 365.697 863.872C365.287 863.31 364.728 863.028 364.019 863.028C363.321 863.028 362.768 863.307 362.357 863.863C361.947 864.414 361.742 865.24 361.742 866.342ZM385.104 871H382.889V865.313H377.167V871H374.943V858.203H377.167V863.529H382.889V858.203H385.104V871ZM387.134 866.157C387.134 865.226 387.318 864.388 387.688 863.644C388.057 862.894 388.575 862.319 389.243 861.921C389.911 861.517 390.679 861.314 391.546 861.314C392.829 861.314 393.869 861.728 394.666 862.554C395.469 863.38 395.902 864.476 395.967 865.841L395.976 866.342C395.976 867.279 395.794 868.117 395.431 868.855C395.073 869.594 394.558 870.165 393.884 870.569C393.216 870.974 392.442 871.176 391.563 871.176C390.222 871.176 389.146 870.73 388.338 869.84C387.535 868.943 387.134 867.751 387.134 866.263V866.157ZM389.27 866.342C389.27 867.32 389.472 868.088 389.876 868.645C390.28 869.195 390.843 869.471 391.563 869.471C392.284 869.471 392.844 869.189 393.242 868.627C393.646 868.064 393.849 867.241 393.849 866.157C393.849 865.196 393.641 864.435 393.225 863.872C392.814 863.31 392.255 863.028 391.546 863.028C390.849 863.028 390.295 863.307 389.885 863.863C389.475 864.414 389.27 865.24 389.27 866.342ZM399.79 861.49L399.852 862.483C400.52 861.704 401.434 861.314 402.594 861.314C403.865 861.314 404.735 861.801 405.204 862.773C405.896 861.801 406.868 861.314 408.122 861.314C409.171 861.314 409.95 861.604 410.46 862.185C410.976 862.765 411.239 863.62 411.251 864.751V871H409.115V864.812C409.115 864.209 408.983 863.767 408.72 863.485C408.456 863.204 408.02 863.063 407.41 863.063C406.924 863.063 406.525 863.195 406.215 863.459C405.91 863.717 405.696 864.057 405.573 864.479L405.582 871H403.446V864.742C403.417 863.623 402.846 863.063 401.732 863.063C400.877 863.063 400.271 863.412 399.913 864.109V871H397.777V861.49H399.79ZM417.632 871.176C416.278 871.176 415.18 870.751 414.336 869.901C413.498 869.046 413.079 867.909 413.079 866.491V866.228C413.079 865.278 413.261 864.432 413.624 863.688C413.993 862.938 414.509 862.354 415.171 861.938C415.833 861.522 416.571 861.314 417.386 861.314C418.681 861.314 419.68 861.728 420.383 862.554C421.092 863.38 421.446 864.549 421.446 866.061V866.922H415.232C415.297 867.707 415.558 868.328 416.015 868.785C416.478 869.242 417.058 869.471 417.755 869.471C418.733 869.471 419.53 869.075 420.146 868.284L421.297 869.383C420.916 869.951 420.406 870.394 419.768 870.71C419.135 871.021 418.423 871.176 417.632 871.176ZM417.377 863.028C416.791 863.028 416.316 863.233 415.953 863.644C415.596 864.054 415.367 864.625 415.268 865.357H419.337V865.199C419.29 864.484 419.1 863.945 418.766 863.582C418.432 863.213 417.969 863.028 417.377 863.028ZM430.024 866.245V871H427.801V858.203H432.696C434.126 858.203 435.26 858.575 436.098 859.319C436.941 860.063 437.363 861.048 437.363 862.272C437.363 863.526 436.95 864.502 436.124 865.199C435.304 865.896 434.152 866.245 432.67 866.245H430.024ZM430.024 864.461H432.696C433.487 864.461 434.091 864.276 434.507 863.907C434.923 863.532 435.131 862.993 435.131 862.29C435.131 861.599 434.92 861.048 434.498 860.638C434.076 860.222 433.496 860.008 432.758 859.996H430.024V864.461ZM444.685 871C444.591 870.818 444.509 870.522 444.438 870.112C443.759 870.821 442.927 871.176 441.942 871.176C440.987 871.176 440.208 870.903 439.604 870.358C439.001 869.813 438.699 869.14 438.699 868.337C438.699 867.323 439.074 866.547 439.824 866.008C440.58 865.463 441.658 865.19 443.059 865.19H444.368V864.566C444.368 864.074 444.23 863.682 443.955 863.389C443.68 863.09 443.261 862.94 442.698 862.94C442.212 862.94 441.813 863.063 441.503 863.31C441.192 863.55 441.037 863.857 441.037 864.232H438.901C438.901 863.711 439.074 863.225 439.42 862.773C439.766 862.316 440.234 861.959 440.826 861.701C441.424 861.443 442.089 861.314 442.821 861.314C443.935 861.314 444.822 861.596 445.484 862.158C446.146 862.715 446.486 863.5 446.504 864.514V868.803C446.504 869.658 446.624 870.341 446.864 870.851V871H444.685ZM442.338 869.462C442.76 869.462 443.155 869.359 443.524 869.154C443.899 868.949 444.181 868.674 444.368 868.328V866.535H443.217C442.426 866.535 441.831 866.673 441.433 866.948C441.034 867.224 440.835 867.613 440.835 868.117C440.835 868.527 440.97 868.855 441.239 869.102C441.515 869.342 441.881 869.462 442.338 869.462ZM448.367 866.175C448.367 864.698 448.713 863.521 449.404 862.642C450.102 861.757 451.024 861.314 452.173 861.314C453.257 861.314 454.109 861.692 454.73 862.448L454.827 861.49H456.752V870.71C456.752 871.958 456.362 872.942 455.583 873.663C454.81 874.384 453.764 874.744 452.445 874.744C451.748 874.744 451.065 874.598 450.397 874.305C449.735 874.018 449.231 873.64 448.886 873.171L449.896 871.888C450.553 872.667 451.361 873.057 452.322 873.057C453.031 873.057 453.591 872.863 454.001 872.477C454.411 872.096 454.616 871.533 454.616 870.789V870.147C454.001 870.833 453.181 871.176 452.155 871.176C451.042 871.176 450.131 870.733 449.422 869.849C448.719 868.964 448.367 867.739 448.367 866.175ZM450.494 866.359C450.494 867.314 450.688 868.067 451.074 868.618C451.467 869.163 452.009 869.436 452.7 869.436C453.562 869.436 454.2 869.066 454.616 868.328V864.145C454.212 863.424 453.579 863.063 452.718 863.063C452.015 863.063 451.467 863.342 451.074 863.898C450.688 864.455 450.494 865.275 450.494 866.359ZM463.142 871.176C461.788 871.176 460.689 870.751 459.846 869.901C459.008 869.046 458.589 867.909 458.589 866.491V866.228C458.589 865.278 458.771 864.432 459.134 863.688C459.503 862.938 460.019 862.354 460.681 861.938C461.343 861.522 462.081 861.314 462.896 861.314C464.19 861.314 465.189 861.728 465.893 862.554C466.602 863.38 466.956 864.549 466.956 866.061V866.922H460.742C460.807 867.707 461.067 868.328 461.524 868.785C461.987 869.242 462.567 869.471 463.265 869.471C464.243 869.471 465.04 869.075 465.655 868.284L466.807 869.383C466.426 869.951 465.916 870.394 465.277 870.71C464.645 871.021 463.933 871.176 463.142 871.176ZM462.887 863.028C462.301 863.028 461.826 863.233 461.463 863.644C461.105 864.054 460.877 864.625 460.777 865.357H464.847V865.199C464.8 864.484 464.609 863.945 464.275 863.582C463.941 863.213 463.479 863.028 462.887 863.028Z" fill="black"/>
<defs>
<linearGradient id="paint0_linear" x1="284.779" y1="752" x2="235.279" y2="986" gradientUnits="userSpaceOnUse">
<stop stop-color="#0765E3"/>
<stop offset="1" stop-color="#AE01FF"/>
</linearGradient>
<linearGradient id="paint1_linear" x1="797.779" y1="-218.139" x2="592.387" y2="975.67" gradientUnits="userSpaceOnUse">
<stop stop-color="#0765E3"/>
<stop offset="1" stop-color="#AE01FF"/>
</linearGradient>
</defs>
</svg>
